<svg width="180" height="52" viewBox="0 0 180 52" fill="none" xmlns="http://www.w3.org/2000/svg">
<path d="M179 46.0041C179 48.7753 176.709 51.02 173.874 51.02H6.13243C3.2995 51.02 1 48.7753 1 46.0041V6.00434C1 3.23448 3.2995 0.981934 6.13243 0.981934H173.873C176.709 0.981934 178.999 3.23448 178.999 6.00434L179 46.0041Z" fill="white"/>
<path d="M173.333 1.04162C176.42 1.04162 178.932 3.4905 178.932 6.5V45.5C178.932 48.5095 176.42 50.9584 173.333 50.9584H6.66667C3.58 50.9584 1.06833 48.5095 1.06833 45.5V6.5C1.06833 3.4905 3.58 1.04162 6.66667 1.04162H173.333ZM173.333 2.74817e-06H6.66667C3.00167 2.74817e-06 0 2.92663 0 6.5V45.5C0 49.0734 3.00167 52 6.66667 52H173.333C176.998 52 180 49.0734 180 45.5V6.5C180 2.92663 176.998 2.74817e-06 173.333 2.74817e-06Z" fill="#A6A6A6"/>
<path d="M40.1704 25.719C40.1318 21.5291 43.6891 19.4908 43.8517 19.3959C41.8371 16.532 38.7144 16.1407 37.6171 16.1095C34.9944 15.8404 32.4504 17.6396 31.1144 17.6396C29.7518 17.6396 27.6944 16.1355 25.4771 16.1797C22.6238 16.2226 19.9545 17.8333 18.4905 20.3345C15.4691 25.4343 17.7225 32.9288 20.6171 37.051C22.0651 39.0699 23.7571 41.3241 25.9718 41.2448C28.1384 41.1577 28.9478 39.898 31.5624 39.898C34.1531 39.898 34.9131 41.2448 37.1718 41.1941C39.4971 41.1577 40.9611 39.1661 42.3584 37.129C44.0317 34.8151 44.7037 32.5362 44.7304 32.4192C44.6757 32.401 40.2144 30.7409 40.1704 25.719Z" fill="black"/>
<path d="M35.9038 13.3977C37.0691 11.9768 37.8664 10.0437 37.6451 8.08203C35.9584 8.15483 33.8491 9.21952 32.6344 10.6092C31.5598 11.8338 30.5998 13.841 30.8478 15.7286C32.7424 15.8664 34.6878 14.7965 35.9038 13.3977Z" fill="black"/>
<path d="M71.5269 40.9545H68.4989L66.8402 35.8727H61.0749L59.4949 40.9545H56.5469L62.2589 23.6538H65.7869L71.5269 40.9545ZM66.3402 33.7407L64.8402 29.2231C64.6816 28.7616 64.3842 27.6748 63.9456 25.9639H63.8922C63.7176 26.6998 63.4362 27.7866 63.0496 29.2231L61.5762 33.7407H66.3402Z" fill="black"/>
<path d="M86.2164 34.5638C86.2164 36.6855 85.6284 38.3625 84.4524 39.5936C83.399 40.6895 82.091 41.2368 80.5297 41.2368C78.8444 41.2368 77.6337 40.6466 76.8964 39.4662H76.843V46.0378H74.0004V32.5865C74.0004 31.2527 73.9644 29.8838 73.895 28.4797H76.395L76.5537 30.4571H76.607C77.555 28.9672 78.9937 28.2236 80.9244 28.2236C82.4337 28.2236 83.6937 28.8047 84.7017 29.9683C85.7124 31.1331 86.2164 32.6645 86.2164 34.5638ZM83.3204 34.6652C83.3204 33.451 83.0404 32.45 82.4777 31.6622C81.863 30.8406 81.0377 30.4298 80.003 30.4298C79.3017 30.4298 78.6644 30.6586 78.095 31.1097C77.5244 31.5647 77.151 32.1588 76.9764 32.8946C76.8884 33.2378 76.8444 33.5186 76.8444 33.7396V35.8196C76.8444 36.7271 77.1297 37.4928 77.7004 38.1181C78.271 38.7434 79.0124 39.0554 79.9244 39.0554C80.995 39.0554 81.8284 38.6524 82.4244 37.849C83.0217 37.0443 83.3204 35.9834 83.3204 34.6652Z" fill="black"/>
<path d="M100.932 34.5638C100.932 36.6855 100.344 38.3625 99.167 39.5936C98.115 40.6895 96.807 41.2368 95.2456 41.2368C93.5603 41.2368 92.3496 40.6466 91.6136 39.4662H91.5603V46.0378H88.7176V32.5865C88.7176 31.2527 88.6816 29.8838 88.6123 28.4797H91.1123L91.271 30.4571H91.3243C92.271 28.9672 93.7096 28.2236 95.6416 28.2236C97.1496 28.2236 98.4096 28.8047 99.4203 29.9683C100.427 31.1331 100.932 32.6645 100.932 34.5638ZM98.0363 34.6652C98.0363 33.451 97.755 32.45 97.1923 31.6622C96.5776 30.8406 95.755 30.4298 94.719 30.4298C94.0163 30.4298 93.3803 30.6586 92.8096 31.1097C92.239 31.5647 91.867 32.1588 91.6923 32.8946C91.6056 33.2378 91.5603 33.5186 91.5603 33.7396V35.8196C91.5603 36.7271 91.8456 37.4928 92.4136 38.1181C92.9843 38.7421 93.7256 39.0554 94.6403 39.0554C95.711 39.0554 96.5443 38.6524 97.1403 37.849C97.7377 37.0443 98.0363 35.9834 98.0363 34.6652Z" fill="black"/>
<path d="M117.386 36.1038C117.386 37.5754 116.862 38.7727 115.81 39.697C114.654 40.7071 113.044 41.2115 110.976 41.2115C109.067 41.2115 107.536 40.8527 106.378 40.1338L107.036 37.8237C108.284 38.5595 109.654 38.9287 111.146 38.9287C112.216 38.9287 113.05 38.6921 113.648 38.2215C114.244 37.7509 114.542 37.1191 114.542 36.3313C114.542 35.6293 114.296 35.0378 113.804 34.5581C113.315 34.0784 112.498 33.6325 111.356 33.2204C108.25 32.0907 106.698 30.4357 106.698 28.2595C106.698 26.8373 107.242 25.6712 108.331 24.7638C109.416 23.8551 110.864 23.4014 112.675 23.4014C114.29 23.4014 115.631 23.6757 116.702 24.223L115.991 26.4824C114.991 25.952 113.86 25.6868 112.595 25.6868C111.595 25.6868 110.814 25.9273 110.254 26.4057C109.78 26.8334 109.543 27.3547 109.543 27.9722C109.543 28.656 109.814 29.2215 110.358 29.6661C110.831 30.0769 111.691 30.5215 112.939 31.0012C114.466 31.6005 115.587 32.3013 116.308 33.1047C117.027 33.9055 117.386 34.9078 117.386 36.1038Z" fill="black"/>
<path d="M126.784 30.5598H123.651V36.6165C123.651 38.157 124.203 38.9266 125.31 38.9266C125.818 38.9266 126.239 38.8837 126.572 38.7979L126.651 40.9026C126.091 41.1067 125.354 41.2094 124.44 41.2094C123.318 41.2094 122.44 40.8753 121.807 40.2084C121.176 39.5402 120.859 38.4196 120.859 36.8453V30.5572H118.992V28.4773H120.859V26.1932L123.651 25.3716V28.4773H126.784V30.5598Z" fill="black"/>
<path d="M140.922 34.615C140.922 36.5325 140.359 38.1068 139.236 39.3379C138.059 40.6054 136.496 41.2372 134.548 41.2372C132.671 41.2372 131.176 40.6301 130.062 39.4159C128.947 38.2017 128.39 36.669 128.39 34.8217C128.39 32.8886 128.963 31.3053 130.114 30.0742C131.262 28.8418 132.811 28.2256 134.759 28.2256C136.636 28.2256 138.147 28.8327 139.287 30.0482C140.378 31.2273 140.922 32.7495 140.922 34.615ZM137.972 34.7047C137.972 33.5542 137.72 32.5675 137.21 31.7447C136.614 30.7489 135.762 30.2523 134.658 30.2523C133.515 30.2523 132.647 30.7502 132.051 31.7447C131.54 32.5688 131.288 33.5711 131.288 34.7567C131.288 35.9072 131.54 36.8939 132.051 37.7155C132.666 38.7113 133.524 39.2079 134.632 39.2079C135.718 39.2079 136.57 38.7009 137.184 37.6895C137.708 36.851 137.972 35.8539 137.972 34.7047Z" fill="black"/>
<path d="M150.162 30.9172C149.88 30.8665 149.58 30.8405 149.266 30.8405C148.266 30.8405 147.492 31.2084 146.948 31.9455C146.475 32.5955 146.238 33.4171 146.238 34.4091V40.9546H143.396L143.423 32.4083C143.423 30.9705 143.387 29.6614 143.316 28.481H145.792L145.896 30.8678H145.975C146.275 30.0475 146.748 29.3871 147.396 28.8918C148.03 28.4459 148.714 28.2236 149.451 28.2236C149.714 28.2236 149.951 28.2418 150.162 28.2743V30.9172Z" fill="black"/>
<path d="M162.875 34.1274C162.875 34.624 162.842 35.0426 162.771 35.3845H154.243C154.276 36.6169 154.688 37.5594 155.48 38.2094C156.199 38.7905 157.128 39.0817 158.27 39.0817C159.532 39.0817 160.684 38.8854 161.72 38.4915L162.166 40.4155C160.955 40.9303 159.526 41.1864 157.876 41.1864C155.892 41.1864 154.335 40.617 153.202 39.4795C152.071 38.342 151.504 36.8145 151.504 34.8983C151.504 33.0172 152.031 31.4507 153.086 30.2014C154.19 28.8676 155.682 28.2007 157.559 28.2007C159.403 28.2007 160.799 28.8676 161.747 30.2014C162.498 31.2609 162.875 32.5713 162.875 34.1274ZM160.164 33.4085C160.183 32.5869 159.998 31.8771 159.612 31.2778C159.12 30.5069 158.364 30.1221 157.347 30.1221C156.418 30.1221 155.662 30.4978 155.084 31.2518C154.611 31.8511 154.33 32.57 154.243 33.4072H160.164V33.4085Z" fill="black"/>
<path d="M65.4002 13.0127C65.4002 14.5428 64.9295 15.6946 63.9895 16.4681C63.1189 17.1818 61.8815 17.5393 60.2789 17.5393C59.4842 17.5393 58.8042 17.5055 58.2349 17.4379V9.07768C58.9775 8.96068 59.7775 8.90088 60.6415 8.90088C62.1682 8.90088 63.3189 9.22457 64.0949 9.87197C64.9642 10.6039 65.4002 11.6503 65.4002 13.0127ZM63.9269 13.0504C63.9269 12.0585 63.6575 11.298 63.1189 10.7677C62.5802 10.2386 61.7935 9.97336 60.7575 9.97336C60.3175 9.97336 59.9429 10.002 59.6322 10.0618V16.4174C59.8042 16.4434 60.1189 16.4551 60.5762 16.4551C61.6455 16.4551 62.4709 16.1652 63.0522 15.5854C63.6335 15.0056 63.9269 14.1606 63.9269 13.0504Z" fill="black"/>
<path d="M73.2122 14.3493C73.2122 15.2918 72.9362 16.064 72.3842 16.6698C71.8055 17.2926 71.0388 17.6033 70.0815 17.6033C69.1588 17.6033 68.4242 17.3056 67.8762 16.7075C67.3295 16.1108 67.0562 15.3581 67.0562 14.4507C67.0562 13.5016 67.3375 12.7229 67.9028 12.1184C68.4682 11.5138 69.2282 11.2109 70.1855 11.2109C71.1082 11.2109 71.8495 11.5086 72.4108 12.1054C72.9442 12.6852 73.2122 13.434 73.2122 14.3493ZM71.7628 14.3935C71.7628 13.8279 71.6375 13.343 71.3882 12.9387C71.0948 12.4499 70.6775 12.2055 70.1348 12.2055C69.5735 12.2055 69.1468 12.4499 68.8535 12.9387C68.6028 13.343 68.4788 13.8357 68.4788 14.4182C68.4788 14.9837 68.6042 15.4686 68.8535 15.8729C69.1562 16.3617 69.5775 16.6061 70.1215 16.6061C70.6548 16.6061 71.0735 16.3578 71.3748 15.8599C71.6335 15.4478 71.7628 14.959 71.7628 14.3935Z" fill="black"/>
<path d="M83.6867 11.3364L81.72 17.465H80.4401L79.6254 14.8038C79.4187 14.1394 79.2507 13.479 79.1201 12.8237H79.0947C78.9734 13.4972 78.8054 14.1563 78.5894 14.8038L77.7241 17.465H76.4294L74.5801 11.3364H76.0161L76.7267 14.2499C76.8987 14.939 77.0401 15.5955 77.1534 16.217H77.1787C77.2827 15.7047 77.4547 15.0521 77.6974 14.2629L78.5894 11.3377H79.7281L80.5827 14.2005C80.7894 14.8987 80.9574 15.5708 81.0867 16.2183H81.1254C81.2201 15.5877 81.3627 14.9156 81.5521 14.2005L82.3147 11.3377H83.6867V11.3364Z" fill="black"/>
<path d="M90.9307 17.4635H89.5334V13.9538C89.5334 12.8722 89.1121 12.3315 88.2667 12.3315C87.8521 12.3315 87.5174 12.4797 87.2574 12.7773C87.0001 13.075 86.8694 13.426 86.8694 13.8277V17.4622H85.472V13.0867C85.472 12.5485 85.4547 11.9649 85.4214 11.3331H86.6494L86.7147 12.2912H86.7534C86.9161 11.9935 87.1587 11.7478 87.4774 11.5515C87.8561 11.3227 88.2801 11.207 88.7441 11.207C89.3307 11.207 89.8187 11.3916 90.2067 11.7621C90.6894 12.2158 90.9307 12.893 90.9307 13.7926V17.4635Z" fill="black"/>
<path d="M94.7842 17.4643H93.3882V8.52393H94.7842V17.4643Z" fill="black"/>
<path d="M103.011 14.3493C103.011 15.2918 102.735 16.064 102.183 16.6698C101.604 17.2926 100.836 17.6033 99.8803 17.6033C98.9563 17.6033 98.2216 17.3056 97.675 16.7075C97.1283 16.1108 96.855 15.3581 96.855 14.4507C96.855 13.5016 97.1363 12.7229 97.7017 12.1184C98.267 11.5138 99.027 11.2109 99.983 11.2109C100.907 11.2109 101.647 11.5086 102.21 12.1054C102.743 12.6852 103.011 13.434 103.011 14.3493ZM101.56 14.3935C101.56 13.8279 101.435 13.343 101.186 12.9387C100.894 12.4499 100.475 12.2055 99.9336 12.2055C99.371 12.2055 98.9443 12.4499 98.6523 12.9387C98.4016 13.343 98.2776 13.8357 98.2776 14.4182C98.2776 14.9837 98.403 15.4686 98.6523 15.8729C98.955 16.3617 99.3763 16.6061 99.9203 16.6061C100.454 16.6061 100.871 16.3578 101.172 15.8599C101.432 15.4478 101.56 14.959 101.56 14.3935Z" fill="black"/>
<path d="M109.773 17.4642H108.519L108.415 16.7582H108.376C107.947 17.3212 107.335 17.6033 106.54 17.6033C105.947 17.6033 105.467 17.4174 105.105 17.0482C104.777 16.7127 104.613 16.2954 104.613 15.8001C104.613 15.0513 104.933 14.4806 105.577 14.0853C106.22 13.6901 107.124 13.4964 108.288 13.5055V13.3911C108.288 12.5838 107.853 12.1808 106.983 12.1808C106.363 12.1808 105.816 12.3329 105.344 12.6345L105.06 11.7401C105.644 11.3877 106.365 11.2109 107.216 11.2109C108.859 11.2109 109.683 12.056 109.683 13.746V16.0029C109.683 16.6152 109.713 17.1028 109.773 17.4642ZM108.323 15.3581V14.413C106.781 14.387 106.011 14.7991 106.011 15.648C106.011 15.9678 106.099 16.207 106.279 16.3669C106.459 16.5268 106.688 16.6061 106.961 16.6061C107.268 16.6061 107.555 16.5112 107.816 16.3227C108.079 16.1329 108.24 15.8924 108.3 15.5973C108.315 15.531 108.323 15.4504 108.323 15.3581Z" fill="black"/>
<path d="M117.714 17.4641H116.474L116.408 16.48H116.37C115.974 17.2288 115.299 17.6032 114.351 17.6032C113.594 17.6032 112.963 17.3133 112.463 16.7335C111.963 16.1537 111.714 15.401 111.714 14.4767C111.714 13.4847 111.984 12.6813 112.528 12.0677C113.055 11.4957 113.7 11.2097 114.468 11.2097C115.312 11.2097 115.903 11.4866 116.239 12.0417H116.266V8.52393H117.664V15.8131C117.664 16.4098 117.68 16.9597 117.714 17.4641ZM116.266 14.8797V13.8578C116.266 13.681 116.252 13.538 116.227 13.4288C116.148 13.1012 115.979 12.8256 115.722 12.6033C115.462 12.381 115.148 12.2692 114.787 12.2692C114.266 12.2692 113.858 12.4707 113.558 12.875C113.26 13.2793 113.11 13.7954 113.11 14.426C113.11 15.0318 113.252 15.5232 113.539 15.9015C113.842 16.3045 114.25 16.506 114.76 16.506C115.219 16.506 115.586 16.3383 115.864 16.0016C116.134 15.6909 116.266 15.3165 116.266 14.8797Z" fill="black"/>
<path d="M129.664 14.3493C129.664 15.2918 129.388 16.064 128.836 16.6698C128.258 17.2926 127.492 17.6033 126.534 17.6033C125.612 17.6033 124.878 17.3056 124.328 16.7075C123.782 16.1108 123.508 15.3581 123.508 14.4507C123.508 13.5016 123.79 12.7229 124.355 12.1184C124.92 11.5138 125.68 11.2109 126.639 11.2109C127.56 11.2109 128.303 11.5086 128.863 12.1054C129.396 12.6852 129.664 13.434 129.664 14.3493ZM128.216 14.3935C128.216 13.8279 128.091 13.343 127.842 12.9387C127.547 12.4499 127.131 12.2055 126.587 12.2055C126.027 12.2055 125.6 12.4499 125.306 12.9387C125.055 13.343 124.931 13.8357 124.931 14.4182C124.931 14.9837 125.056 15.4686 125.306 15.8729C125.608 16.3617 126.03 16.6061 126.574 16.6061C127.107 16.6061 127.527 16.3578 127.828 15.8599C128.086 15.4478 128.216 14.959 128.216 14.3935Z" fill="black"/>
<path d="M137.177 17.4635H135.781V13.9538C135.781 12.8722 135.36 12.3315 134.513 12.3315C134.099 12.3315 133.764 12.4797 133.505 12.7773C133.247 13.075 133.117 13.426 133.117 13.8277V17.4622H131.719V13.0867C131.719 12.5485 131.703 11.9649 131.669 11.3331H132.896L132.961 12.2912H133C133.164 11.9935 133.407 11.7478 133.724 11.5515C134.104 11.3227 134.527 11.207 134.992 11.207C135.577 11.207 136.065 11.3916 136.453 11.7621C136.937 12.2158 137.177 12.893 137.177 13.7926V17.4635Z" fill="black"/>
<path d="M146.581 12.3563H145.043V15.3333C145.043 16.0899 145.316 16.4682 145.857 16.4682C146.108 16.4682 146.316 16.4474 146.48 16.4045L146.516 17.438C146.24 17.5394 145.877 17.5901 145.431 17.5901C144.879 17.5901 144.449 17.4263 144.139 17.0987C143.827 16.7711 143.672 16.2199 143.672 15.4464V12.3563H142.753V11.3358H143.672V10.2126L145.041 9.80957V11.3345H146.58V12.3563H146.581Z" fill="black"/>
<path d="M153.979 17.4643H152.58V13.9802C152.58 12.8817 152.159 12.3318 151.315 12.3318C150.667 12.3318 150.224 12.6503 149.982 13.2873C149.94 13.4212 149.916 13.585 149.916 13.7774V17.463H148.52V8.52393H149.916V12.2174H149.943C150.383 11.5452 151.014 11.2098 151.831 11.2098C152.41 11.2098 152.888 11.3944 153.268 11.7649C153.742 12.2265 153.979 12.9129 153.979 13.8203V17.4643Z" fill="black"/>
<path d="M161.609 14.1093C161.609 14.3537 161.591 14.5591 161.557 14.7268H157.367C157.385 15.3326 157.585 15.7941 157.973 16.1139C158.328 16.3999 158.785 16.5429 159.345 16.5429C159.965 16.5429 160.531 16.4467 161.04 16.253L161.259 17.1993C160.663 17.4515 159.961 17.5776 159.149 17.5776C158.176 17.5776 157.409 17.2981 156.855 16.7392C156.297 16.1802 156.021 15.4301 156.021 14.4889C156.021 13.5647 156.279 12.7951 156.797 12.1815C157.339 11.5263 158.071 11.1987 158.995 11.1987C159.899 11.1987 160.585 11.5263 161.049 12.1815C161.424 12.7015 161.609 13.345 161.609 14.1093ZM160.276 13.7571C160.287 13.3528 160.195 13.0044 160.005 12.7106C159.763 12.3323 159.393 12.1425 158.893 12.1425C158.437 12.1425 158.065 12.3271 157.781 12.6976C157.549 12.9927 157.412 13.345 157.367 13.7571H160.276Z" fill="black"/>
</svg>
