<svg width="640" height="105" viewBox="0 0 640 105" fill="none" xmlns="http://www.w3.org/2000/svg">
<path d="M51.56 102V103H52.56V102H51.56ZM-28.36 102H-29.36V103H-28.36V102ZM-28.36 1.19999V0.199993H-29.36V1.19999H-28.36ZM51.56 1.19999H52.56V0.199993H51.56V1.19999ZM51.56 21.36V22.36H52.56V21.36H51.56ZM-2.44 21.36V20.36H-3.44V21.36H-2.44ZM-2.44 40.8H-3.44V41.8H-2.44V40.8ZM40.04 40.8H41.04V39.8H40.04V40.8ZM40.04 60.96V61.96H41.04V60.96H40.04ZM-2.44 60.96V59.96H-3.44V60.96H-2.44ZM-2.44 81.84H-3.44V82.84H-2.44V81.84ZM51.56 81.84H52.56V80.84H51.56V81.84ZM51.56 101H-28.36V103H51.56V101ZM-27.36 102V1.19999H-29.36V102H-27.36ZM-28.36 2.19999H51.56V0.199993H-28.36V2.19999ZM50.56 1.19999V21.36H52.56V1.19999H50.56ZM51.56 20.36H-2.44V22.36H51.56V20.36ZM-3.44 21.36V40.8H-1.44V21.36H-3.44ZM-2.44 41.8H40.04V39.8H-2.44V41.8ZM39.04 40.8V60.96H41.04V40.8H39.04ZM40.04 59.96H-2.44V61.96H40.04V59.96ZM-3.44 60.96V81.84H-1.44V60.96H-3.44ZM-2.44 82.84H51.56V80.84H-2.44V82.84ZM50.56 81.84V102H52.56V81.84H50.56ZM150.886 102V103H151.886V102H150.886ZM123.526 102L122.658 102.496L122.946 103H123.526V102ZM88.9662 41.52L89.8345 41.0239L87.9662 37.7544V41.52H88.9662ZM88.9662 102V103H89.9662V102H88.9662ZM63.0462 102H62.0462V103H63.0462V102ZM63.0462 1.19999V0.199993H62.0462V1.19999H63.0462ZM90.4062 1.19999L91.2745 0.703854L90.9866 0.199993H90.4062V1.19999ZM124.966 61.68L124.098 62.1761L125.966 65.4456V61.68H124.966ZM124.966 1.19999V0.199993H123.966V1.19999H124.966ZM150.886 1.19999H151.886V0.199993H150.886V1.19999ZM150.886 101H123.526V103H150.886V101ZM124.395 101.504L89.8345 41.0239L88.098 42.0161L122.658 102.496L124.395 101.504ZM87.9662 41.52V102H89.9662V41.52H87.9662ZM88.9662 101H63.0462V103H88.9662V101ZM64.0462 102V1.19999H62.0462V102H64.0462ZM63.0462 2.19999H90.4062V0.199993H63.0462V2.19999ZM89.538 1.69613L124.098 62.1761L125.834 61.1839L91.2745 0.703854L89.538 1.69613ZM125.966 61.68V1.19999H123.966V61.68H125.966ZM124.966 2.19999H150.886V0.199993H124.966V2.19999ZM149.886 1.19999V102H151.886V1.19999H149.886ZM248.154 102V103H249.154V102H248.154ZM168.234 102H167.234V103H168.234V102ZM168.234 1.19999V0.199993H167.234V1.19999H168.234ZM248.154 1.19999H249.154V0.199993H248.154V1.19999ZM248.154 21.36V22.36H249.154V21.36H248.154ZM194.154 21.36V20.36H193.154V21.36H194.154ZM194.154 40.8H193.154V41.8H194.154V40.8ZM236.634 40.8H237.634V39.8H236.634V40.8ZM236.634 60.96V61.96H237.634V60.96H236.634ZM194.154 60.96V59.96H193.154V60.96H194.154ZM194.154 81.84H193.154V82.84H194.154V81.84ZM248.154 81.84H249.154V80.84H248.154V81.84ZM248.154 101H168.234V103H248.154V101ZM169.234 102V1.19999H167.234V102H169.234ZM168.234 2.19999H248.154V0.199993H168.234V2.19999ZM247.154 1.19999V21.36H249.154V1.19999H247.154ZM248.154 20.36H194.154V22.36H248.154V20.36ZM193.154 21.36V40.8H195.154V21.36H193.154ZM194.154 41.8H236.634V39.8H194.154V41.8ZM235.634 40.8V60.96H237.634V40.8H235.634ZM236.634 59.96H194.154V61.96H236.634V59.96ZM193.154 60.96V81.84H195.154V60.96H193.154ZM194.154 82.84H248.154V80.84H194.154V82.84ZM247.154 81.84V102H249.154V81.84H247.154ZM259.64 1.19999V0.199993H258.64V1.19999H259.64ZM342.008 8.112L341.293 8.81162L341.301 8.81915L341.308 8.82651L342.008 8.112ZM344.888 61.536L344.034 61.0161L344.03 61.0229L344.026 61.0298L344.888 61.536ZM332.36 70.32L332.117 69.3499L330.84 69.6692L331.491 70.814L332.36 70.32ZM350.36 102V103H352.078L351.229 101.506L350.36 102ZM322.28 102L321.403 102.48L321.688 103H322.28V102ZM305.72 71.76L306.597 71.2797L306.312 70.76H305.72V71.76ZM285.56 71.76V70.76H284.56V71.76H285.56ZM285.56 102V103H286.56V102H285.56ZM259.64 102H258.64V103H259.64V102ZM285.56 21.36V20.36H284.56V21.36H285.56ZM285.56 51.6H284.56V52.6H285.56V51.6ZM259.64 2.19999H320.12V0.199993H259.64V2.19999ZM320.12 2.19999C330.079 2.19999 337.052 4.48034 341.293 8.81162L342.723 7.41237C337.94 2.52765 330.321 0.199993 320.12 0.199993V2.19999ZM341.308 8.82651C345.64 13.0676 347.92 20.0413 347.92 30H349.92C349.92 19.7987 347.592 12.1804 342.708 7.39749L341.308 8.82651ZM347.92 30V42.96H349.92V30H347.92ZM347.92 42.96C347.92 50.8359 346.588 56.8197 344.034 61.0161L345.742 62.0559C348.564 57.4203 349.92 51.0201 349.92 42.96H347.92ZM344.026 61.0298C341.591 65.177 337.662 67.9637 332.117 69.3499L332.603 71.2901C338.578 69.7963 343.001 66.727 345.75 62.0422L344.026 61.0298ZM331.491 70.814L349.491 102.494L351.229 101.506L333.229 69.826L331.491 70.814ZM350.36 101H322.28V103H350.36V101ZM323.157 101.52L306.597 71.2797L304.843 72.2403L321.403 102.48L323.157 101.52ZM305.72 70.76H285.56V72.76H305.72V70.76ZM284.56 71.76V102H286.56V71.76H284.56ZM285.56 101H259.64V103H285.56V101ZM260.64 102V1.19999H258.64V102H260.64ZM324 30C324 26.9659 323.241 24.5066 321.547 22.8129C319.853 21.1192 317.394 20.36 314.36 20.36V22.36C317.086 22.36 318.947 23.0408 320.133 24.2271C321.319 25.4134 322 27.2741 322 30H324ZM314.36 20.36H285.56V22.36H314.36V20.36ZM284.56 21.36V51.6H286.56V21.36H284.56ZM285.56 52.6H314.36V50.6H285.56V52.6ZM314.36 52.6C317.394 52.6 319.853 51.8408 321.547 50.1471C323.241 48.4534 324 45.9941 324 42.96H322C322 45.6859 321.319 47.5466 320.133 48.7329C318.947 49.9192 317.086 50.6 314.36 50.6V52.6ZM324 42.96V30H322V42.96H324ZM449.681 99.84L449.787 100.834L450.681 100.739V99.84H449.681ZM367.025 96.816L367.732 96.1089L367.025 96.816ZM367.169 8.112L367.876 8.81911V8.8191L367.169 8.112ZM441.041 1.19999H442.041V0.199993H441.041V1.19999ZM441.041 21.36V22.36H442.041V21.36H441.041ZM388.193 81.408L387.46 82.0884L387.485 82.1156L387.512 82.1408L388.193 81.408ZM423.761 82.56L423.813 83.5586L424.761 83.5088V82.56H423.761ZM423.761 61.68H424.761V60.68H423.761V61.68ZM405.041 61.68H404.041V62.68H405.041V61.68ZM405.041 44.4V43.4H404.041V44.4H405.041ZM449.681 44.4H450.681V43.4H449.681V44.4ZM449.574 98.8457C427.139 101.243 406.535 102.44 387.761 102.44V104.44C406.618 104.44 427.294 103.237 449.787 100.834L449.574 98.8457ZM387.761 102.44C378.485 102.44 371.884 100.261 367.732 96.1089L366.318 97.5231C370.998 102.203 378.22 104.44 387.761 104.44V102.44ZM367.732 96.1089C363.58 91.957 361.401 85.3553 361.401 76.08H359.401C359.401 85.6207 361.637 92.843 366.318 97.5231L367.732 96.1089ZM361.401 76.08V30H359.401V76.08H361.401ZM361.401 30C361.401 20.0365 363.635 13.0596 367.876 8.81911L366.462 7.40489C361.678 12.1884 359.401 19.8035 359.401 30H361.401ZM367.876 8.8191C372.215 4.47935 379.244 2.19999 389.201 2.19999V0.199993C378.997 0.199993 371.338 2.52864 366.462 7.40489L367.876 8.8191ZM389.201 2.19999H441.041V0.199993H389.201V2.19999ZM440.041 1.19999V21.36H442.041V1.19999H440.041ZM441.041 20.36H394.961V22.36H441.041V20.36ZM394.961 20.36C391.926 20.36 389.467 21.1192 387.774 22.8129C386.08 24.5066 385.321 26.9659 385.321 30H387.321C387.321 27.2741 388.001 25.4134 389.188 24.2271C390.374 23.0408 392.235 22.36 394.961 22.36V20.36ZM385.321 30V76.08H387.321V30H385.321ZM385.321 76.08C385.321 78.486 386.006 80.5231 387.46 82.0884L388.925 80.7275C387.883 79.6049 387.321 78.09 387.321 76.08H385.321ZM387.512 82.1408C389.077 83.5943 391.115 84.28 393.521 84.28V82.28C391.511 82.28 389.996 81.7177 388.873 80.6752L387.512 82.1408ZM393.521 84.28C404.575 84.28 414.673 84.0397 423.813 83.5586L423.708 81.5614C414.609 82.0403 404.547 82.28 393.521 82.28V84.28ZM424.761 82.56V61.68H422.761V82.56H424.761ZM423.761 60.68H405.041V62.68H423.761V60.68ZM406.041 61.68V44.4H404.041V61.68H406.041ZM405.041 45.4H449.681V43.4H405.041V45.4ZM448.681 44.4V99.84H450.681V44.4H448.681ZM446.823 1.19999V0.199993H445.184L445.934 1.65754L446.823 1.19999ZM474.183 1.19999L475.083 0.763393L474.809 0.199993H474.183V1.19999ZM497.943 50.16L497.043 50.5966L497.943 52.4504L498.843 50.5966L497.943 50.16ZM521.703 1.19999V0.199993H521.077L520.803 0.763393L521.703 1.19999ZM549.063 1.19999L549.952 1.65754L550.702 0.199993H549.063V1.19999ZM510.903 75.36L510.014 74.9025L509.903 75.1178V75.36H510.903ZM510.903 102V103H511.903V102H510.903ZM484.983 102H483.983V103H484.983V102ZM484.983 75.36H485.983V75.1178L485.872 74.9025L484.983 75.36ZM446.823 2.19999H474.183V0.199993H446.823V2.19999ZM473.283 1.63659L497.043 50.5966L498.843 49.7234L475.083 0.763393L473.283 1.63659ZM498.843 50.5966L522.603 1.63659L520.803 0.763393L497.043 49.7234L498.843 50.5966ZM521.703 2.19999H549.063V0.199993H521.703V2.19999ZM548.174 0.742451L510.014 74.9025L511.792 75.8175L549.952 1.65754L548.174 0.742451ZM509.903 75.36V102H511.903V75.36H509.903ZM510.903 101H484.983V103H510.903V101ZM485.983 102V75.36H483.983V102H485.983ZM485.872 74.9025L447.712 0.742451L445.934 1.65754L484.094 75.8175L485.872 74.9025ZM641.212 45.84H642.212V42.0076L640.339 45.3514L641.212 45.84ZM621.052 81.84V82.84H621.638L621.924 82.3286L621.052 81.84ZM600.892 81.84L600.019 82.3286L600.306 82.84H600.892V81.84ZM580.732 45.84L581.604 45.3514L579.732 42.0076V45.84H580.732ZM580.732 102V103H581.732V102H580.732ZM554.812 102H553.812V103H554.812V102ZM554.812 1.19999V0.199993H553.812V1.19999H554.812ZM582.172 1.19999L583.052 0.724476L582.768 0.199993H582.172V1.19999ZM610.972 54.48L610.092 54.9555L610.972 56.583L611.852 54.9555L610.972 54.48ZM639.772 1.19999V0.199993H639.176L638.892 0.724476L639.772 1.19999ZM667.132 1.19999H668.132V0.199993H667.132V1.19999ZM667.132 102V103H668.132V102H667.132ZM641.212 102H640.212V103H641.212V102ZM640.339 45.3514L620.179 81.3514L621.924 82.3286L642.084 46.3286L640.339 45.3514ZM621.052 80.84H600.892V82.84H621.052V80.84ZM601.764 81.3514L581.604 45.3514L579.859 46.3286L600.019 82.3286L601.764 81.3514ZM579.732 45.84V102H581.732V45.84H579.732ZM580.732 101H554.812V103H580.732V101ZM555.812 102V1.19999H553.812V102H555.812ZM554.812 2.19999H582.172V0.199993H554.812V2.19999ZM581.292 1.67551L610.092 54.9555L611.852 54.0045L583.052 0.724476L581.292 1.67551ZM611.852 54.9555L640.652 1.67551L638.892 0.724476L610.092 54.0045L611.852 54.9555ZM639.772 2.19999H667.132V0.199993H639.772V2.19999ZM666.132 1.19999V102H668.132V1.19999H666.132ZM667.132 101H641.212V103H667.132V101ZM642.212 102V45.84H640.212V102H642.212Z" fill="#FFA6C4"/>
</svg>
