<svg width="180" height="52" viewBox="0 0 180 52" fill="none" xmlns="http://www.w3.org/2000/svg">
<path d="M173.333 52H6.66667C3.00167 52 0 49.0734 0 45.5V6.5C0 2.92663 3.00167 2.74817e-06 6.66667 2.74817e-06H173.333C176.998 2.74817e-06 180 2.92663 180 6.5V45.5C180 49.0734 176.998 52 173.333 52Z" fill="black"/>
<path d="M173.333 1.04162C176.42 1.04162 178.932 3.4905 178.932 6.5V45.5C178.932 48.5095 176.42 50.9584 173.333 50.9584H6.66667C3.58 50.9584 1.06833 48.5095 1.06833 45.5V6.5C1.06833 3.4905 3.58 1.04162 6.66667 1.04162H173.333ZM173.333 2.74817e-06H6.66667C3.00167 2.74817e-06 0 2.92663 0 6.5V45.5C0 49.0734 3.00167 52 6.66667 52H173.333C176.998 52 180 49.0734 180 45.5V6.5C180 2.92663 176.998 2.74817e-06 173.333 2.74817e-06Z" fill="#A6A6A6"/>
<path d="M63.2234 13.3178C63.2234 14.4034 62.8901 15.2728 62.2334 15.9212C61.4784 16.6898 60.4951 17.0766 59.2901 17.0766C58.1384 17.0766 57.155 16.6833 56.3484 15.9082C55.54 15.1216 55.1367 14.1564 55.1367 13.0009C55.1367 11.8455 55.54 10.8802 56.3484 10.1002C57.155 9.31856 58.1384 8.92529 59.2901 8.92529C59.8634 8.92529 60.4101 9.04067 60.9317 9.25518C61.4517 9.47131 61.8751 9.76382 62.1817 10.1246L61.4851 10.8104C60.9501 10.1945 60.2217 9.89058 59.2901 9.89058C58.4501 9.89058 57.7217 10.1766 57.1034 10.7535C56.4917 11.332 56.185 12.0812 56.185 13.0009C56.185 13.9207 56.4917 14.6764 57.1034 15.2549C57.7217 15.8253 58.4501 16.1178 59.2901 16.1178C60.1817 16.1178 60.9317 15.8253 61.5234 15.2484C61.9134 14.8665 62.1351 14.34 62.1934 13.6672H59.2901V12.7279H63.1634C63.2101 12.9311 63.2234 13.1277 63.2234 13.3178Z" fill="white" stroke="white" stroke-width="0.16" stroke-miterlimit="10"/>
<path d="M69.368 10.0606H65.7297V12.5305H69.0097V13.4697H65.7297V15.9396H69.368V16.8967H64.6997V9.10352H69.368V10.0606Z" fill="white" stroke="white" stroke-width="0.16" stroke-miterlimit="10"/>
<path d="M73.705 16.8967H72.675V10.0606H70.4434V9.10352H75.9384V10.0606H73.705V16.8967Z" fill="white" stroke="white" stroke-width="0.16" stroke-miterlimit="10"/>
<path d="M79.915 16.8967V9.10352H80.9434V16.8967H79.915Z" fill="white" stroke="white" stroke-width="0.16" stroke-miterlimit="10"/>
<path d="M85.5019 16.8967H84.4802V10.0606H82.2402V9.10352H87.7419V10.0606H85.5019V16.8967Z" fill="white" stroke="white" stroke-width="0.16" stroke-miterlimit="10"/>
<path d="M98.1446 15.8952C97.3562 16.6833 96.3796 17.0766 95.2146 17.0766C94.0429 17.0766 93.0663 16.6833 92.2779 15.8952C91.4913 15.1086 91.0996 14.1434 91.0996 13.0009C91.0996 11.8585 91.4913 10.8932 92.2779 10.1067C93.0663 9.31856 94.0429 8.92529 95.2146 8.92529C96.3729 8.92529 97.3496 9.31856 98.1379 10.1132C98.9312 10.9062 99.3229 11.865 99.3229 13.0009C99.3229 14.1434 98.9312 15.1086 98.1446 15.8952ZM93.0396 15.2419C93.6329 15.8253 94.3546 16.1178 95.2146 16.1178C96.0679 16.1178 96.7962 15.8253 97.3829 15.2419C97.9746 14.6585 98.2745 13.9093 98.2745 13.0009C98.2745 12.0925 97.9746 11.3434 97.3829 10.76C96.7962 10.1766 96.0679 9.88408 95.2146 9.88408C94.3546 9.88408 93.6329 10.1766 93.0396 10.76C92.4479 11.3434 92.1479 12.0925 92.1479 13.0009C92.1479 13.9093 92.4479 14.6585 93.0396 15.2419Z" fill="white" stroke="white" stroke-width="0.16" stroke-miterlimit="10"/>
<path d="M100.769 16.8967V9.10352H102.019L105.905 15.1645H105.95L105.905 13.6663V9.10352H106.933V16.8967H105.86L101.79 10.5367H101.745L101.79 12.0414V16.8967H100.769Z" fill="white" stroke="white" stroke-width="0.16" stroke-miterlimit="10"/>
<path d="M90.8464 28.278C87.7147 28.278 85.1564 30.6018 85.1564 33.8078C85.1564 36.9879 87.7147 39.336 90.8464 39.336C93.9847 39.336 96.543 36.9879 96.543 33.8078C96.543 30.6018 93.9847 28.278 90.8464 28.278ZM90.8464 37.1585C89.128 37.1585 87.6497 35.7757 87.6497 33.8078C87.6497 31.814 89.128 30.4555 90.8464 30.4555C92.5647 30.4555 94.0497 31.814 94.0497 33.8078C94.0497 35.7757 92.5647 37.1585 90.8464 37.1585ZM78.4314 28.278C75.293 28.278 72.7414 30.6018 72.7414 33.8078C72.7414 36.9879 75.293 39.336 78.4314 39.336C81.568 39.336 84.1214 36.9879 84.1214 33.8078C84.1214 30.6018 81.568 28.278 78.4314 28.278ZM78.4314 37.1585C76.7114 37.1585 75.228 35.7757 75.228 33.8078C75.228 31.814 76.7114 30.4555 78.4314 30.4555C80.1497 30.4555 81.628 31.814 81.628 33.8078C81.628 35.7757 80.1497 37.1585 78.4314 37.1585ZM63.6581 29.9729V32.3226H69.413C69.2447 33.6356 68.7947 34.6008 68.1047 35.2736C67.2647 36.086 65.9564 36.9879 63.6581 36.9879C60.1164 36.9879 57.3431 34.2011 57.3431 30.748C57.3431 27.2949 60.1164 24.5081 63.6581 24.5081C65.573 24.5081 66.9664 25.2377 67.9947 26.1834L69.6931 24.5276C68.2547 23.1886 66.3414 22.16 63.6581 22.16C58.8014 22.16 54.7197 26.0128 54.7197 30.748C54.7197 35.4832 58.8014 39.336 63.6581 39.336C66.2831 39.336 68.2547 38.4975 69.8047 36.9245C71.393 35.3759 71.888 33.1985 71.888 31.4402C71.888 30.8942 71.8414 30.3921 71.758 29.9729H63.6581ZM124.068 31.7945C123.6 30.5579 122.155 28.278 119.211 28.278C116.295 28.278 113.866 30.5189 113.866 33.8078C113.866 36.905 116.27 39.336 119.491 39.336C122.096 39.336 123.6 37.7874 124.218 36.8855L122.285 35.6294C121.64 36.5492 120.761 37.1585 119.491 37.1585C118.23 37.1585 117.325 36.5947 116.745 35.4832L124.33 32.4233L124.068 31.7945ZM116.335 33.6356C116.27 31.5036 118.033 30.4116 119.296 30.4116C120.286 30.4116 121.126 30.8942 121.406 31.5849L116.335 33.6356ZM110.17 38.9996H112.663V22.7499H110.17V38.9996ZM106.086 29.5098H106.003C105.443 28.863 104.375 28.278 103.021 28.278C100.181 28.278 97.5847 30.709 97.5847 33.8257C97.5847 36.9245 100.181 39.336 103.021 39.336C104.375 39.336 105.443 38.7461 106.003 38.0799H106.086V38.8729C106.086 40.987 104.928 42.1228 103.06 42.1228C101.536 42.1228 100.591 41.0503 100.201 40.1485L98.033 41.0308C98.658 42.4966 100.313 44.3003 103.06 44.3003C105.983 44.3003 108.45 42.6233 108.45 38.543V28.6144H106.086V29.5098ZM103.235 37.1585C101.516 37.1585 100.078 35.7562 100.078 33.8257C100.078 31.8774 101.516 30.4555 103.235 30.4555C104.928 30.4555 106.263 31.8774 106.263 33.8257C106.263 35.7562 104.928 37.1585 103.235 37.1585ZM135.741 22.7499H129.778V38.9996H132.265V32.8426H135.741C138.503 32.8426 141.211 30.8942 141.211 27.7954C141.211 24.6982 138.496 22.7499 135.741 22.7499ZM135.806 30.5823H132.265V25.0102H135.806C137.663 25.0102 138.723 26.5133 138.723 27.7954C138.723 29.0531 137.663 30.5823 135.806 30.5823ZM151.178 28.2472C149.381 28.2472 147.513 29.0207 146.745 30.735L148.951 31.6369C149.426 30.735 150.3 30.4425 151.223 30.4425C152.513 30.4425 153.821 31.1981 153.841 32.5322V32.7028C153.391 32.4493 152.428 32.074 151.243 32.074C148.866 32.074 146.445 33.3496 146.445 35.7302C146.445 37.9076 148.391 39.31 150.58 39.31C152.253 39.31 153.176 38.5739 153.756 37.7175H153.841V38.9736H156.243V32.7402C156.243 29.8591 154.036 28.2472 151.178 28.2472ZM150.878 37.152C150.065 37.152 148.931 36.7588 148.931 35.7757C148.931 34.5179 150.345 34.0353 151.568 34.0353C152.663 34.0353 153.176 34.2709 153.841 34.5813C153.646 36.086 152.318 37.152 150.878 37.152ZM164.993 28.603L162.135 35.6473H162.05L159.095 28.603H156.413L160.853 38.4471L158.32 43.9249H160.918L167.76 28.603H164.993ZM142.578 38.9996H145.071V22.7499H142.578V38.9996Z" fill="white"/>
<path d="M13.9137 9.80097C13.5221 10.2007 13.2954 10.8231 13.2954 11.6291V40.3781C13.2954 41.1841 13.5221 41.8065 13.9137 42.2062L14.0104 42.2939L30.5337 26.1905V25.8102L14.0104 9.70673L13.9137 9.80097Z" fill="url(#paint0_linear)"/>
<path d="M36.0349 31.561L30.5332 26.1906V25.8104L36.0415 20.4399L36.1649 20.5098L42.6882 24.1285C44.5499 25.1555 44.5499 26.8454 42.6882 27.8789L36.1649 31.4912L36.0349 31.561Z" fill="url(#paint1_linear)"/>
<path d="M36.1647 31.4918L30.533 26.001L13.9131 42.207C14.5314 42.8407 15.5397 42.9171 16.6864 42.2833L36.1647 31.4918Z" fill="url(#paint2_linear)"/>
<path d="M36.1647 20.5086L16.6864 9.71683C15.5397 9.08957 14.5314 9.16595 13.9131 9.79971L30.533 25.9995L36.1647 20.5086Z" fill="url(#paint3_linear)"/>
<defs>
<linearGradient id="paint0_linear" x1="29.0666" y1="40.6775" x2="7.25686" y2="18.3082" gradientUnits="userSpaceOnUse">
<stop stop-color="#00A0FF"/>
<stop offset="0.0066" stop-color="#00A1FF"/>
<stop offset="0.2601" stop-color="#00BEFF"/>
<stop offset="0.5122" stop-color="#00D2FF"/>
<stop offset="0.7604" stop-color="#00DFFF"/>
<stop offset="1" stop-color="#00E3FF"/>
</linearGradient>
<linearGradient id="paint1_linear" x1="45.1124" y1="25.9987" x2="12.8498" y2="25.9987" gradientUnits="userSpaceOnUse">
<stop stop-color="#FFE000"/>
<stop offset="0.4087" stop-color="#FFBD00"/>
<stop offset="0.7754" stop-color="#FFA500"/>
<stop offset="1" stop-color="#FF9C00"/>
</linearGradient>
<linearGradient id="paint2_linear" x1="33.1024" y1="23.0161" x2="3.52644" y2="-7.31841" gradientUnits="userSpaceOnUse">
<stop stop-color="#FF3A44"/>
<stop offset="1" stop-color="#C31162"/>
</linearGradient>
<linearGradient id="paint3_linear" x1="9.7295" y1="51.7708" x2="22.9368" y2="38.2251" gradientUnits="userSpaceOnUse">
<stop stop-color="#32A071"/>
<stop offset="0.0685" stop-color="#2DA771"/>
<stop offset="0.4762" stop-color="#15CF74"/>
<stop offset="0.8009" stop-color="#06E775"/>
<stop offset="1" stop-color="#00F076"/>
</linearGradient>
</defs>
</svg>
