<svg width="154" height="45" viewBox="0 0 154 45" fill="none" xmlns="http://www.w3.org/2000/svg">
<path d="M153.144 39.8111C153.144 42.2093 151.184 44.1518 148.759 44.1518H5.24655C2.82282 44.1518 0.855469 42.2093 0.855469 39.8111V5.19592C0.855469 2.79893 2.82282 0.849609 5.24655 0.849609H148.758C151.184 0.849609 153.143 2.79893 153.143 5.19592L153.144 39.8111Z" fill="white"/>
<path d="M148.296 0.901404C150.937 0.901404 153.086 3.02062 153.086 5.625V39.375C153.086 41.9794 150.937 44.0986 148.296 44.0986H5.7037C3.06289 44.0986 0.914018 41.9794 0.914018 39.375V5.625C0.914018 3.02062 3.06289 0.901404 5.7037 0.901404H148.296ZM148.296 1.61381e-08H5.7037C2.56809 1.61381e-08 0 2.53265 0 5.625V39.375C0 42.4673 2.56809 45 5.7037 45H148.296C151.432 45 154 42.4673 154 39.375V5.625C154 2.53265 151.432 1.61381e-08 148.296 1.61381e-08Z" fill="#A6A6A6"/>
<path d="M34.3677 22.2569C34.3347 18.6311 37.3782 16.8671 37.5173 16.785C35.7937 14.3066 33.1221 13.968 32.1832 13.941C29.9394 13.7081 27.7629 15.2651 26.6199 15.2651C25.454 15.2651 23.6939 13.9635 21.7968 14.0017C19.3556 14.0388 17.0719 15.4327 15.8193 17.5972C13.2344 22.0105 15.1623 28.4961 17.6388 32.0635C18.8777 33.8106 20.3253 35.7613 22.22 35.6927C24.0737 35.6173 24.7662 34.5272 27.0031 34.5272C29.2196 34.5272 29.8698 35.6927 31.8022 35.6488C33.7917 35.6173 35.0442 33.8938 36.2397 32.131C37.6713 30.1285 38.2463 28.1564 38.2691 28.0551C38.2223 28.0394 34.4054 26.6028 34.3677 22.2569Z" fill="black"/>
<path d="M30.7174 11.5942C31.7144 10.3646 32.3966 8.69175 32.2072 6.99414C30.7642 7.05714 28.9595 7.97851 27.9203 9.18113C27.0009 10.2409 26.1795 11.9779 26.3917 13.6113C28.0127 13.7306 29.677 12.8047 30.7174 11.5942Z" fill="black"/>
<path d="M61.1961 35.4385H58.6055L57.1864 31.0408H52.2538L50.9021 35.4385H48.3799L53.2668 20.4668H56.2852L61.1961 35.4385ZM56.7586 29.1958L55.4753 25.2864C55.3396 24.887 55.0852 23.9465 54.7099 22.466H54.6642C54.5148 23.1027 54.2741 24.0432 53.9433 25.2864L52.6828 29.1958H56.7586Z" fill="black"/>
<path d="M73.7633 29.9086C73.7633 31.7446 73.2602 33.1959 72.2541 34.2613C71.3529 35.2097 70.2338 35.6833 68.898 35.6833C67.4561 35.6833 66.4203 35.1725 65.7895 34.151H65.7439V39.838H63.3118V28.1974C63.3118 27.0432 63.281 25.8585 63.2217 24.6435H65.3606L65.4963 26.3547H65.5419C66.353 25.0654 67.5839 24.4219 69.2357 24.4219C70.527 24.4219 71.605 24.9248 72.4674 25.9316C73.3321 26.9397 73.7633 28.2649 73.7633 29.9086ZM71.2856 29.9963C71.2856 28.9456 71.046 28.0793 70.5646 27.3975C70.0388 26.6865 69.3326 26.331 68.4474 26.331C67.8474 26.331 67.3021 26.529 66.815 26.9194C66.3268 27.3132 66.0074 27.8273 65.8579 28.4641C65.7826 28.7611 65.745 29.0041 65.745 29.1953V30.9953C65.745 31.7806 65.9891 32.4432 66.4774 32.9844C66.9656 33.5255 67.5998 33.7955 68.3801 33.7955C69.2961 33.7955 70.0091 33.4468 70.519 32.7515C71.0301 32.0551 71.2856 31.1371 71.2856 29.9963Z" fill="black"/>
<path d="M86.3539 29.9086C86.3539 31.7446 85.8509 33.1959 84.8436 34.2613C83.9435 35.2097 82.8245 35.6833 81.4887 35.6833C80.0468 35.6833 79.011 35.1725 78.3813 34.151H78.3357V39.838H75.9036V28.1974C75.9036 27.0432 75.8728 25.8585 75.8135 24.6435H77.9524L78.0881 26.3547H78.1337C78.9437 25.0654 80.1745 24.4219 81.8275 24.4219C83.1176 24.4219 84.1956 24.9248 85.0603 25.9316C85.9216 26.9397 86.3539 28.2649 86.3539 29.9086ZM83.8762 29.9963C83.8762 28.9456 83.6355 28.0793 83.1541 27.3975C82.6283 26.6865 81.9244 26.331 81.0381 26.331C80.4369 26.331 79.8928 26.529 79.4045 26.9194C78.9163 27.3132 78.598 27.8273 78.4486 28.4641C78.3744 28.7611 78.3357 29.0041 78.3357 29.1953V30.9953C78.3357 31.7806 78.5798 32.4432 79.0657 32.9844C79.554 33.5244 80.1882 33.7955 80.9708 33.7955C81.8868 33.7955 82.5998 33.4468 83.1097 32.7515C83.6207 32.0551 83.8762 31.1371 83.8762 29.9963Z" fill="black"/>
<path d="M100.43 31.2425C100.43 32.516 99.9821 33.5521 99.082 34.352C98.093 35.2261 96.7162 35.6627 94.9469 35.6627C93.3133 35.6627 92.0038 35.3521 91.0125 34.73L91.576 32.7309C92.6437 33.3676 93.8153 33.6871 95.0917 33.6871C96.0078 33.6871 96.7207 33.4824 97.2329 33.0751C97.7428 32.6679 97.9972 32.1211 97.9972 31.4394C97.9972 30.8319 97.7873 30.32 97.3664 29.9048C96.9477 29.4897 96.2484 29.1038 95.272 28.7472C92.6141 27.7696 91.2862 26.3374 91.2862 24.4542C91.2862 23.2234 91.7517 22.2143 92.6836 21.429C93.6122 20.6426 94.851 20.25 96.4002 20.25C97.7816 20.25 98.9292 20.4874 99.8452 20.961L99.2372 22.9163C98.3816 22.4573 97.4143 22.2278 96.3317 22.2278C95.4762 22.2278 94.8077 22.4359 94.3286 22.8499C93.9236 23.22 93.7206 23.6712 93.7206 24.2055C93.7206 24.7973 93.9521 25.2867 94.4176 25.6714C94.8225 26.0269 95.5583 26.4117 96.626 26.8268C97.9322 27.3454 98.8915 27.9518 99.5087 28.6471C100.124 29.3401 100.43 30.2075 100.43 31.2425Z" fill="black"/>
<path d="M108.472 26.4449H105.791V31.6863C105.791 33.0194 106.263 33.6854 107.21 33.6854C107.645 33.6854 108.005 33.6482 108.29 33.574L108.358 35.3954C107.878 35.572 107.248 35.6609 106.466 35.6609C105.506 35.6609 104.755 35.3717 104.213 34.7946C103.674 34.2164 103.402 33.2466 103.402 31.8843V26.4427H101.805V24.6427H103.402V22.6661L105.791 21.9551V24.6427H108.472V26.4449Z" fill="black"/>
<path d="M120.567 29.9531C120.567 31.6125 120.085 32.9749 119.125 34.0402C118.117 35.1371 116.78 35.6838 115.114 35.6838C113.508 35.6838 112.229 35.1585 111.275 34.1077C110.322 33.057 109.845 31.7306 109.845 30.132C109.845 28.4592 110.335 27.0889 111.32 26.0236C112.302 24.9571 113.627 24.4238 115.294 24.4238C116.9 24.4238 118.193 24.9492 119.168 26.0011C120.101 27.0214 120.567 28.3388 120.567 29.9531ZM118.043 30.0308C118.043 29.0352 117.828 28.1813 117.391 27.4692C116.881 26.6074 116.152 26.1777 115.207 26.1777C114.23 26.1777 113.487 26.6086 112.977 27.4692C112.54 28.1824 112.325 29.0498 112.325 30.0758C112.325 31.0714 112.54 31.9253 112.977 32.6362C113.503 33.498 114.238 33.9277 115.186 33.9277C116.114 33.9277 116.843 33.489 117.369 32.6137C117.817 31.8881 118.043 31.0253 118.043 30.0308Z" fill="black"/>
<path d="M128.472 26.7529C128.231 26.709 127.974 26.6865 127.705 26.6865C126.85 26.6865 126.188 27.0049 125.723 27.6428C125.318 28.2053 125.115 28.9163 125.115 29.7746V35.439H122.684L122.706 28.0433C122.706 26.799 122.676 25.6661 122.615 24.6446H124.734L124.823 26.7101H124.89C125.147 26.0003 125.552 25.4288 126.106 25.0001C126.648 24.6143 127.233 24.4219 127.864 24.4219C128.089 24.4219 128.292 24.4376 128.472 24.4657V26.7529Z" fill="black"/>
<path d="M139.349 29.5312C139.349 29.961 139.32 30.3232 139.26 30.6191H131.964C131.992 31.6856 132.345 32.5012 133.022 33.0637C133.637 33.5666 134.432 33.8186 135.409 33.8186C136.489 33.8186 137.475 33.6487 138.361 33.3078L138.742 34.9728C137.706 35.4183 136.483 35.64 135.072 35.64C133.375 35.64 132.042 35.1472 131.073 34.1628C130.105 33.1785 129.621 31.8566 129.621 30.1983C129.621 28.5705 130.071 27.2148 130.974 26.1337C131.918 24.9795 133.195 24.4023 134.801 24.4023C136.378 24.4023 137.573 24.9795 138.384 26.1337C139.026 27.0506 139.349 28.1846 139.349 29.5312ZM137.03 28.9091C137.046 28.1981 136.887 27.5838 136.557 27.0652C136.136 26.3981 135.49 26.0651 134.619 26.0651C133.824 26.0651 133.177 26.3902 132.683 27.0427C132.279 27.5613 132.038 28.1835 131.964 28.908H137.03V28.9091Z" fill="black"/>
<path d="M55.9536 11.2615C55.9536 12.5856 55.5509 13.5823 54.7467 14.2517C54.0018 14.8693 52.9432 15.1787 51.572 15.1787C50.8921 15.1787 50.3103 15.1494 49.8232 15.0909V7.85612C50.4586 7.75487 51.1431 7.70312 51.8823 7.70312C53.1884 7.70312 54.1729 7.98325 54.8368 8.54349C55.5806 9.17686 55.9536 10.0825 55.9536 11.2615ZM54.6931 11.2941C54.6931 10.4357 54.4626 9.7776 54.0018 9.3186C53.5409 8.86073 52.8679 8.63124 51.9815 8.63124C51.6051 8.63124 51.2845 8.65599 51.0187 8.70774V14.2078C51.1659 14.2303 51.4351 14.2404 51.8264 14.2404C52.7413 14.2404 53.4474 13.9895 53.9447 13.4878C54.4421 12.9861 54.6931 12.2548 54.6931 11.2941Z" fill="black"/>
<path d="M62.6374 12.417C62.6374 13.2327 62.4013 13.901 61.929 14.4252C61.4339 14.9641 60.778 15.233 59.9589 15.233C59.1696 15.233 58.541 14.9754 58.0722 14.4578C57.6045 13.9415 57.3706 13.2901 57.3706 12.5048C57.3706 11.6835 57.6113 11.0096 58.095 10.4865C58.5786 9.96331 59.2289 9.70117 60.0479 9.70117C60.8373 9.70117 61.4716 9.95881 61.9518 10.4752C62.4081 10.977 62.6374 11.625 62.6374 12.417ZM61.3974 12.4553C61.3974 11.9659 61.2902 11.5462 61.0769 11.1964C60.8259 10.7733 60.4689 10.5618 60.0046 10.5618C59.5243 10.5618 59.1593 10.7733 58.9083 11.1964C58.6939 11.5462 58.5878 11.9726 58.5878 12.4766C58.5878 12.966 58.695 13.3857 58.9083 13.7356C59.1673 14.1586 59.5277 14.3701 59.9932 14.3701C60.4495 14.3701 60.8077 14.1552 61.0655 13.7243C61.2868 13.3677 61.3974 12.9447 61.3974 12.4553Z" fill="black"/>
<path d="M71.5988 9.81055L69.9163 15.1142H68.8212L68.1242 12.8111C67.9473 12.2362 67.8036 11.6647 67.6918 11.0976H67.6701C67.5663 11.6804 67.4226 12.2508 67.2378 12.8111L66.4975 15.1142H65.3898L63.8076 9.81055H65.0362L65.6442 12.3318C65.7914 12.9281 65.9123 13.4963 66.0092 14.0341H66.0309C66.1199 13.5908 66.267 13.026 66.4747 12.3431L67.2378 9.81167H68.212L68.9432 12.2891C69.12 12.8933 69.2638 13.4749 69.3744 14.0352H69.4075C69.4885 13.4896 69.6105 12.9079 69.7725 12.2891L70.425 9.81167H71.5988V9.81055Z" fill="black"/>
<path d="M77.7966 15.1135H76.6011V12.0762C76.6011 11.1403 76.2406 10.6723 75.5173 10.6723C75.1626 10.6723 74.8763 10.8005 74.6538 11.0581C74.4336 11.3157 74.3219 11.6195 74.3219 11.9671V15.1124H73.1263V11.3259C73.1263 10.8601 73.1115 10.3551 73.083 9.80834H74.1336L74.1895 10.6374H74.2226C74.3618 10.3798 74.5694 10.1672 74.842 9.99733C75.166 9.79934 75.5288 9.69922 75.9257 9.69922C76.4277 9.69922 76.8452 9.85896 77.1771 10.1796C77.5901 10.5722 77.7966 11.1583 77.7966 11.9367V15.1135Z" fill="black"/>
<path d="M81.0935 15.1139H79.8992V7.37695H81.0935V15.1139Z" fill="black"/>
<path d="M88.1316 12.417C88.1316 13.2327 87.8954 13.901 87.4231 14.4252C86.9281 14.9641 86.271 15.233 85.4531 15.233C84.6626 15.233 84.034 14.9754 83.5663 14.4578C83.0986 13.9415 82.8647 13.2901 82.8647 12.5048C82.8647 11.6835 83.1054 11.0096 83.5891 10.4865C84.0728 9.96331 84.723 9.70117 85.5409 9.70117C86.3315 9.70117 86.9646 9.95881 87.446 10.4752C87.9023 10.977 88.1316 11.625 88.1316 12.417ZM86.8904 12.4553C86.8904 11.9659 86.7832 11.5462 86.5699 11.1964C86.3201 10.7733 85.9619 10.5618 85.4987 10.5618C85.0173 10.5618 84.6523 10.7733 84.4025 11.1964C84.188 11.5462 84.0819 11.9726 84.0819 12.4766C84.0819 12.966 84.1891 13.3857 84.4025 13.7356C84.6614 14.1586 85.0219 14.3701 85.4873 14.3701C85.9436 14.3701 86.3007 14.1552 86.5585 13.7243C86.7809 13.3677 86.8904 12.9447 86.8904 12.4553Z" fill="black"/>
<path d="M93.9176 15.1126H92.8441L92.7552 14.5017H92.7221C92.3548 14.9889 91.8312 15.233 91.1513 15.233C90.6437 15.233 90.233 15.0721 89.9239 14.7526C89.6432 14.4623 89.5029 14.1012 89.5029 13.6726C89.5029 13.0245 89.7767 12.5307 90.3277 12.1886C90.8775 11.8466 91.6509 11.679 92.6468 11.6869V11.5879C92.6468 10.8892 92.2749 10.5405 91.53 10.5405C90.9996 10.5405 90.5319 10.6721 90.1281 10.9331L89.8851 10.1591C90.3847 9.85418 91.0019 9.70117 91.7296 9.70117C93.135 9.70117 93.84 10.4324 93.84 11.895V13.8481C93.84 14.378 93.8662 14.7999 93.9176 15.1126ZM92.6764 13.2901V12.4722C91.3578 12.4496 90.6984 12.8063 90.6984 13.5409C90.6984 13.8177 90.7737 14.0247 90.9277 14.1631C91.0817 14.3015 91.2779 14.3701 91.5118 14.3701C91.7741 14.3701 92.0194 14.288 92.243 14.1248C92.4677 13.9606 92.6057 13.7524 92.6571 13.4971C92.6696 13.4397 92.6764 13.3699 92.6764 13.2901Z" fill="black"/>
<path d="M100.711 15.1136H99.65L99.5941 14.262H99.5611C99.2223 14.91 98.6451 15.234 97.834 15.234C97.1861 15.234 96.6465 14.9831 96.2187 14.4814C95.7909 13.9796 95.5776 13.3282 95.5776 12.5284C95.5776 11.67 95.8092 10.9747 96.2746 10.4437C96.7252 9.94871 97.2773 9.70121 97.9344 9.70121C98.6565 9.70121 99.1618 9.94084 99.4493 10.4212H99.4721V7.37695H100.669V13.6849C100.669 14.2012 100.682 14.6771 100.711 15.1136ZM99.4721 12.8771V11.9928C99.4721 11.8398 99.4607 11.7161 99.439 11.6216C99.3717 11.3381 99.2268 11.0996 99.0067 10.9072C98.7842 10.7148 98.5161 10.6181 98.207 10.6181C97.761 10.6181 97.4119 10.7925 97.1553 11.1423C96.9009 11.4922 96.772 11.9388 96.772 12.4845C96.772 13.0087 96.894 13.434 97.1393 13.7614C97.3982 14.1101 97.7473 14.2845 98.1842 14.2845C98.5766 14.2845 98.8903 14.1394 99.1287 13.848C99.3592 13.5791 99.4721 13.2551 99.4721 12.8771Z" fill="black"/>
<path d="M110.935 12.417C110.935 13.2327 110.699 13.901 110.227 14.4252C109.732 14.9641 109.077 15.233 108.257 15.233C107.469 15.233 106.84 14.9754 106.37 14.4578C105.902 13.9415 105.668 13.2901 105.668 12.5048C105.668 11.6835 105.909 11.0096 106.393 10.4865C106.877 9.96331 107.527 9.70117 108.347 9.70117C109.135 9.70117 109.771 9.95881 110.25 10.4752C110.706 10.977 110.935 11.625 110.935 12.417ZM109.696 12.4553C109.696 11.9659 109.589 11.5462 109.376 11.1964C109.124 10.7733 108.768 10.5618 108.302 10.5618C107.823 10.5618 107.458 10.7733 107.206 11.1964C106.992 11.5462 106.886 11.9726 106.886 12.4766C106.886 12.966 106.993 13.3857 107.206 13.7356C107.465 14.1586 107.826 14.3701 108.291 14.3701C108.747 14.3701 109.107 14.1552 109.364 13.7243C109.585 13.3677 109.696 12.9447 109.696 12.4553Z" fill="black"/>
<path d="M117.363 15.1135H116.169V12.0762C116.169 11.1403 115.808 10.6723 115.084 10.6723C114.729 10.6723 114.443 10.8005 114.222 11.0581C114 11.3157 113.89 11.6195 113.89 11.9671V15.1124H112.693V11.3259C112.693 10.8601 112.679 10.3551 112.651 9.80834H113.7L113.756 10.6374H113.789C113.93 10.3798 114.137 10.1672 114.409 9.99733C114.734 9.79934 115.096 9.69922 115.494 9.69922C115.994 9.69922 116.412 9.85896 116.744 10.1796C117.158 10.5722 117.363 11.1583 117.363 11.9367V15.1135Z" fill="black"/>
<path d="M125.409 10.6941H124.092V13.2704C124.092 13.9252 124.326 14.2525 124.789 14.2525C125.004 14.2525 125.182 14.2345 125.322 14.1974L125.353 15.0918C125.117 15.1795 124.807 15.2234 124.424 15.2234C123.952 15.2234 123.585 15.0817 123.319 14.7982C123.052 14.5147 122.92 14.0377 122.92 13.3683V10.6941H122.134V9.811H122.92V8.83899L124.091 8.49023V9.80987H125.408V10.6941H125.409Z" fill="black"/>
<path d="M131.737 15.1139H130.54V12.0987C130.54 11.1481 130.18 10.6722 129.458 10.6722C128.903 10.6722 128.525 10.9478 128.317 11.4991C128.282 11.615 128.261 11.7567 128.261 11.9232V15.1127H127.067V7.37695H128.261V10.5732H128.284C128.661 9.99155 129.2 9.70128 129.899 9.70128C130.394 9.70128 130.804 9.86104 131.129 10.1817C131.534 10.5811 131.737 11.1751 131.737 11.9604V15.1139Z" fill="black"/>
<path d="M138.267 12.2102C138.267 12.4217 138.251 12.5994 138.222 12.7446H134.637C134.653 13.2688 134.824 13.6682 135.156 13.9449C135.459 14.1924 135.851 14.3161 136.33 14.3161C136.86 14.3161 137.344 14.2329 137.78 14.0653L137.967 14.8842C137.457 15.1025 136.857 15.2116 136.162 15.2116C135.329 15.2116 134.673 14.9697 134.199 14.486C133.722 14.0023 133.486 13.3532 133.486 12.5387C133.486 11.7388 133.706 11.0729 134.15 10.5419C134.613 9.9749 135.239 9.69141 136.03 9.69141C136.803 9.69141 137.391 9.9749 137.788 10.5419C138.108 10.9919 138.267 11.5487 138.267 12.2102ZM137.126 11.9053C137.135 11.5555 137.056 11.254 136.894 10.9997C136.687 10.6724 136.371 10.5081 135.943 10.5081C135.553 10.5081 135.235 10.6679 134.992 10.9885C134.793 11.2439 134.676 11.5487 134.637 11.9053H137.126Z" fill="black"/>
</svg>
