<svg width="90" height="26" viewBox="0 0 90 26" fill="none" xmlns="http://www.w3.org/2000/svg">
<path d="M89.5 23.0013C89.5 24.3869 88.3543 25.5093 86.9371 25.5093H3.06622C1.64975 25.5093 0.5 24.3869 0.5 23.0013V3.00144C0.5 1.61651 1.64975 0.490234 3.06622 0.490234H86.9365C88.3543 0.490234 89.4993 1.61651 89.4993 3.00144L89.5 23.0013Z" fill="black"/>
<path d="M86.6667 0.520812C88.21 0.520812 89.4658 1.74525 89.4658 3.25V22.75C89.4658 24.2548 88.21 25.4792 86.6667 25.4792H3.33333C1.79 25.4792 0.534166 24.2548 0.534166 22.75V3.25C0.534166 1.74525 1.79 0.520812 3.33333 0.520812H86.6667ZM86.6667 1.37408e-06H3.33333C1.50083 1.37408e-06 0 1.46331 0 3.25V22.75C0 24.5367 1.50083 26 3.33333 26H86.6667C88.4992 26 90 24.5367 90 22.75V3.25C90 1.46331 88.4992 1.37408e-06 86.6667 1.37408e-06Z" fill="#A6A6A6"/>
<path d="M20.0852 12.8634C20.0659 10.7685 21.8445 9.74929 21.9259 9.70184C20.9185 8.26989 19.3572 8.07425 18.8085 8.05865C17.4972 7.9241 16.2252 8.82369 15.5572 8.82369C14.8759 8.82369 13.8472 8.07165 12.7386 8.09375C11.3119 8.1152 9.97723 8.92054 9.24523 10.1711C7.73456 12.7211 8.86123 16.4683 10.3086 18.5294C11.0326 19.5389 11.8786 20.666 12.9859 20.6263C14.0692 20.5828 14.4739 19.9529 15.7812 19.9529C17.0765 19.9529 17.4565 20.6263 18.5859 20.601C19.7485 20.5828 20.4805 19.587 21.1792 18.5684C22.0159 17.4114 22.3519 16.272 22.3652 16.2135C22.3379 16.2044 20.1072 15.3744 20.0852 12.8634Z" fill="white"/>
<path d="M17.9519 6.70275C18.5345 5.99231 18.9332 5.02577 18.8225 4.04492C17.9792 4.08132 16.9245 4.61367 16.3172 5.30851C15.7799 5.92081 15.2999 6.9244 15.4239 7.8682C16.3712 7.9371 17.3439 7.40215 17.9519 6.70275Z" fill="white"/>
<path d="M35.7635 20.4765H34.2495L33.4201 17.9356H30.5374L29.7474 20.4765H28.2734L31.1294 11.8262H32.8935L35.7635 20.4765ZM33.1701 16.8696L32.4201 14.6108C32.3408 14.3801 32.1921 13.8367 31.9728 12.9812H31.9461C31.8588 13.3491 31.7181 13.8926 31.5248 14.6108L30.7881 16.8696H33.1701Z" fill="white"/>
<path d="M43.1082 17.2814C43.1082 18.3422 42.8142 19.1808 42.2262 19.7963C41.6995 20.3443 41.0455 20.6179 40.2648 20.6179C39.4222 20.6179 38.8168 20.3228 38.4482 19.7326H38.4215V23.0184H37.0002V16.2928C37.0002 15.6258 36.9822 14.9414 36.9475 14.2394H38.1975L38.2768 15.228H38.3035C38.7775 14.4831 39.4968 14.1113 40.4622 14.1113C41.2168 14.1113 41.8468 14.4019 42.3508 14.9836C42.8562 15.566 43.1082 16.3318 43.1082 17.2814ZM41.6602 17.3321C41.6602 16.725 41.5202 16.2245 41.2388 15.8306C40.9315 15.4198 40.5188 15.2144 40.0015 15.2144C39.6508 15.2144 39.3322 15.3288 39.0475 15.5543C38.7622 15.7819 38.5755 16.0789 38.4882 16.4468C38.4442 16.6184 38.4222 16.7588 38.4222 16.8693V17.9093C38.4222 18.363 38.5648 18.7459 38.8502 19.0585C39.1355 19.3712 39.5062 19.5272 39.9622 19.5272C40.4975 19.5272 40.9142 19.3257 41.2122 18.924C41.5108 18.5216 41.6602 17.9912 41.6602 17.3321Z" fill="white"/>
<path d="M50.4662 17.2814C50.4662 18.3422 50.1722 19.1808 49.5835 19.7963C49.0575 20.3443 48.4035 20.6179 47.6228 20.6179C46.7802 20.6179 46.1748 20.3228 45.8068 19.7326H45.7802V23.0184H44.3588V16.2928C44.3588 15.6258 44.3408 14.9414 44.3062 14.2394H45.5562L45.6355 15.228H45.6622C46.1355 14.4831 46.8548 14.1113 47.8208 14.1113C48.5748 14.1113 49.2048 14.4019 49.7102 14.9836C50.2135 15.566 50.4662 16.3318 50.4662 17.2814ZM49.0182 17.3321C49.0182 16.725 48.8775 16.2245 48.5962 15.8306C48.2888 15.4198 47.8775 15.2144 47.3595 15.2144C47.0082 15.2144 46.6902 15.3288 46.4048 15.5543C46.1195 15.7819 45.9335 16.0789 45.8462 16.4468C45.8028 16.6184 45.7802 16.7588 45.7802 16.8693V17.9093C45.7802 18.363 45.9228 18.7459 46.2068 19.0585C46.4922 19.3706 46.8628 19.5272 47.3202 19.5272C47.8555 19.5272 48.2722 19.3257 48.5702 18.924C48.8688 18.5216 49.0182 17.9912 49.0182 17.3321Z" fill="white"/>
<path d="M58.6927 18.0504C58.6927 18.7862 58.4307 19.3849 57.9047 19.847C57.3267 20.3521 56.5221 20.6043 55.4881 20.6043C54.5334 20.6043 53.7681 20.4249 53.1887 20.0655L53.5181 18.9104C54.1421 19.2783 54.8267 19.4629 55.5727 19.4629C56.1081 19.4629 56.5247 19.3446 56.8241 19.1093C57.1221 18.874 57.2707 18.5581 57.2707 18.1642C57.2707 17.8132 57.1481 17.5174 56.9021 17.2776C56.6574 17.0377 56.2487 16.8148 55.6781 16.6087C54.1247 16.0439 53.3487 15.2164 53.3487 14.1283C53.3487 13.4172 53.6207 12.8341 54.1654 12.3804C54.7081 11.9261 55.4321 11.6992 56.3374 11.6992C57.1447 11.6992 57.8154 11.8364 58.3507 12.11L57.9954 13.2397C57.4954 12.9745 56.9301 12.8419 56.2974 12.8419C55.7974 12.8419 55.4067 12.9622 55.1267 13.2014C54.8901 13.4152 54.7714 13.6759 54.7714 13.9846C54.7714 14.3265 54.9067 14.6093 55.1787 14.8316C55.4154 15.037 55.8454 15.2593 56.4694 15.4992C57.2327 15.7988 57.7934 16.1492 58.1541 16.5509C58.5134 16.9513 58.6927 17.4524 58.6927 18.0504Z" fill="white"/>
<path d="M63.3921 15.2777H61.8254V18.3061C61.8254 19.0763 62.1014 19.4611 62.6548 19.4611C62.9088 19.4611 63.1194 19.4396 63.2861 19.3967L63.3254 20.4491C63.0454 20.5511 62.6768 20.6025 62.2201 20.6025C61.6588 20.6025 61.2201 20.4354 60.9034 20.102C60.5881 19.7679 60.4294 19.2076 60.4294 18.4205V15.2764H59.4961V14.2364H60.4294V13.0944L61.8254 12.6836V14.2364H63.3921V15.2777Z" fill="white"/>
<path d="M70.4608 17.306C70.4608 18.2648 70.1795 19.0519 69.6182 19.6675C69.0295 20.3012 68.2482 20.6171 67.2742 20.6171C66.3355 20.6171 65.5882 20.3136 65.0308 19.7065C64.4735 19.0994 64.1948 18.333 64.1948 17.4094C64.1948 16.4429 64.4815 15.6512 65.0568 15.0356C65.6308 14.4194 66.4055 14.1113 67.3795 14.1113C68.3182 14.1113 69.0735 14.4149 69.6435 15.0226C70.1888 15.6122 70.4608 16.3733 70.4608 17.306ZM68.9862 17.3509C68.9862 16.7757 68.8602 16.2823 68.6048 15.8709C68.3068 15.373 67.8808 15.1247 67.3288 15.1247C66.7575 15.1247 66.3235 15.3736 66.0255 15.8709C65.7702 16.283 65.6442 16.7841 65.6442 17.3769C65.6442 17.9521 65.7702 18.4455 66.0255 18.8563C66.3328 19.3542 66.7622 19.6025 67.3162 19.6025C67.8588 19.6025 68.2848 19.349 68.5922 18.8433C68.8542 18.424 68.9862 17.9255 68.9862 17.3509Z" fill="white"/>
<path d="M75.0809 15.4581C74.9402 15.4328 74.7902 15.4198 74.6329 15.4198C74.1329 15.4198 73.7462 15.6037 73.4742 15.9723C73.2375 16.2973 73.1189 16.7081 73.1189 17.204V20.4768H71.6982L71.7115 16.2037C71.7115 15.4848 71.6935 14.8302 71.6582 14.24H72.8962L72.9482 15.4334H72.9876C73.1376 15.0233 73.3742 14.6931 73.6982 14.4454C74.0149 14.2225 74.3569 14.1113 74.7256 14.1113C74.8569 14.1113 74.9756 14.1204 75.0809 14.1367V15.4581Z" fill="white"/>
<path d="M81.4375 17.063C81.4375 17.3113 81.4208 17.5206 81.3855 17.6915H77.1215C77.1382 18.3077 77.3442 18.779 77.7402 19.104C78.0995 19.3945 78.5642 19.5401 79.1348 19.5401C79.7662 19.5401 80.3422 19.442 80.8602 19.245L81.0828 20.207C80.4775 20.4644 79.7628 20.5925 78.9382 20.5925C77.9462 20.5925 77.1675 20.3078 76.6009 19.739C76.0355 19.1703 75.7522 18.4065 75.7522 17.4484C75.7522 16.5079 76.0155 15.7246 76.5429 15.1C77.0949 14.4331 77.8409 14.0996 78.7795 14.0996C79.7015 14.0996 80.3995 14.4331 80.8735 15.1C81.2488 15.6297 81.4375 16.2849 81.4375 17.063ZM80.0822 16.7035C80.0915 16.2927 79.9988 15.9378 79.8062 15.6382C79.5602 15.2527 79.1822 15.0603 78.6735 15.0603C78.2089 15.0603 77.8309 15.2482 77.5422 15.6252C77.3055 15.9248 77.1649 16.2843 77.1215 16.7029H80.0822V16.7035Z" fill="white"/>
<path d="M32.7003 6.50514C32.7003 7.27018 32.465 7.84607 31.995 8.23282C31.5597 8.58966 30.941 8.76841 30.1397 8.76841C29.7423 8.76841 29.4023 8.75151 29.1177 8.71771V4.53762C29.489 4.47912 29.889 4.44922 30.321 4.44922C31.0843 4.44922 31.6597 4.61107 32.0477 4.93476C32.4823 5.30071 32.7003 5.82395 32.7003 6.50514ZM31.9637 6.52399C31.9637 6.02805 31.829 5.6478 31.5597 5.38261C31.2903 5.11806 30.897 4.98546 30.379 4.98546C30.159 4.98546 29.9717 4.99976 29.8163 5.02966V8.20747C29.9023 8.22047 30.0597 8.22632 30.2883 8.22632C30.823 8.22632 31.2357 8.08137 31.5263 7.79148C31.817 7.50158 31.9637 7.07908 31.9637 6.52399Z" fill="white"/>
<path d="M36.6063 7.17463C36.6063 7.64589 36.4683 8.03201 36.1923 8.33492C35.903 8.64628 35.5197 8.80164 35.041 8.80164C34.5797 8.80164 34.2123 8.65278 33.9383 8.35377C33.665 8.05541 33.5283 7.67905 33.5283 7.22533C33.5283 6.75081 33.669 6.36145 33.9517 6.05919C34.2343 5.75692 34.6143 5.60547 35.093 5.60547C35.5543 5.60547 35.925 5.75432 36.2057 6.05269C36.4723 6.3426 36.6063 6.71701 36.6063 7.17463ZM35.8817 7.19673C35.8817 6.91397 35.819 6.67151 35.6943 6.46935C35.5477 6.22494 35.339 6.10274 35.0677 6.10274C34.787 6.10274 34.5737 6.22494 34.427 6.46935C34.3017 6.67151 34.2397 6.91787 34.2397 7.20908C34.2397 7.49184 34.3023 7.7343 34.427 7.93646C34.5783 8.18086 34.789 8.30307 35.061 8.30307C35.3277 8.30307 35.537 8.17891 35.6877 7.92996C35.817 7.7239 35.8817 7.47949 35.8817 7.19673Z" fill="white"/>
<path d="M41.8436 5.66797L40.8603 8.73228H40.2203L39.8129 7.40164C39.7096 7.06947 39.6256 6.73924 39.5603 6.41162H39.5476C39.4869 6.74834 39.4029 7.07792 39.2949 7.40164L38.8623 8.73228H38.2149L37.2903 5.66797H38.0083L38.3636 7.12472C38.4496 7.46924 38.5203 7.79752 38.5769 8.10824H38.5896C38.6416 7.85212 38.7276 7.5258 38.8489 7.13122L39.2949 5.66862H39.8643L40.2916 7.10002C40.3949 7.44909 40.4789 7.78517 40.5436 8.10889H40.5629C40.6103 7.79362 40.6816 7.45754 40.7763 7.10002L41.1576 5.66862H41.8436V5.66797Z" fill="white"/>
<path d="M45.4656 8.73177H44.7669V6.97688C44.7669 6.43611 44.5563 6.16573 44.1336 6.16573C43.9263 6.16573 43.7589 6.23983 43.6289 6.38867C43.5003 6.53751 43.4349 6.71299 43.4349 6.91383V8.73112H42.7363V6.54336C42.7363 6.27427 42.7276 5.98244 42.7109 5.66656H43.3249L43.3576 6.14558H43.3769C43.4583 5.99674 43.5796 5.8739 43.7389 5.77575C43.9283 5.66136 44.1403 5.60352 44.3723 5.60352C44.6656 5.60352 44.9096 5.69581 45.1036 5.88105C45.3449 6.10788 45.4656 6.44651 45.4656 6.89628V8.73177Z" fill="white"/>
<path d="M47.3923 8.73193H46.6943V4.26172H47.3923V8.73193Z" fill="white"/>
<path d="M51.5057 7.17463C51.5057 7.64589 51.3677 8.03201 51.0917 8.33492C50.8024 8.64628 50.4184 8.80164 49.9404 8.80164C49.4784 8.80164 49.1111 8.65278 48.8377 8.35377C48.5644 8.05541 48.4277 7.67905 48.4277 7.22533C48.4277 6.75081 48.5684 6.36145 48.8511 6.05919C49.1337 5.75692 49.5137 5.60547 49.9917 5.60547C50.4537 5.60547 50.8237 5.75432 51.1051 6.05269C51.3717 6.3426 51.5057 6.71701 51.5057 7.17463ZM50.7804 7.19673C50.7804 6.91397 50.7177 6.67151 50.5931 6.46935C50.4471 6.22494 50.2377 6.10274 49.9671 6.10274C49.6857 6.10274 49.4724 6.22494 49.3264 6.46935C49.2011 6.67151 49.1391 6.91787 49.1391 7.20908C49.1391 7.49184 49.2017 7.7343 49.3264 7.93646C49.4777 8.18086 49.6884 8.30307 49.9604 8.30307C50.2271 8.30307 50.4357 8.17891 50.5864 7.92996C50.7164 7.7239 50.7804 7.47949 50.7804 7.19673Z" fill="white"/>
<path d="M54.8869 8.73208H54.2595L54.2075 8.37912H54.1882C53.9735 8.66058 53.6675 8.80164 53.2702 8.80164C52.9735 8.80164 52.7336 8.70868 52.5529 8.52408C52.3889 8.35637 52.3069 8.14771 52.3069 7.90005C52.3069 7.52564 52.4669 7.24028 52.7889 7.04267C53.1102 6.84506 53.5622 6.74821 54.1442 6.75276V6.69556C54.1442 6.29189 53.9269 6.09039 53.4915 6.09039C53.1815 6.09039 52.9082 6.16644 52.6722 6.31725L52.5302 5.87003C52.8222 5.69387 53.1829 5.60547 53.6082 5.60547C54.4295 5.60547 54.8415 6.02798 54.8415 6.87302V8.00146C54.8415 8.30762 54.8569 8.55138 54.8869 8.73208ZM54.1615 7.67905V7.20648C53.3909 7.19348 53.0056 7.39954 53.0056 7.824C53.0056 7.98391 53.0495 8.10351 53.1395 8.18346C53.2295 8.26342 53.3442 8.30307 53.4809 8.30307C53.6342 8.30307 53.7775 8.25562 53.9082 8.16136C54.0395 8.06646 54.1202 7.94621 54.1502 7.79865C54.1575 7.7655 54.1615 7.7252 54.1615 7.67905Z" fill="white"/>
<path d="M58.8569 8.73179H58.2369L58.2042 8.23974H58.1849C57.9869 8.61414 57.6496 8.80134 57.1756 8.80134C56.7969 8.80134 56.4816 8.65639 56.2316 8.36649C55.9816 8.07659 55.8569 7.70023 55.8569 7.23808C55.8569 6.74213 55.9923 6.34043 56.2643 6.03363C56.5276 5.74762 56.8503 5.60462 57.2342 5.60462C57.6562 5.60462 57.9516 5.74308 58.1196 6.02063H58.1329V4.26172H58.8322V7.90628C58.8322 8.20464 58.8402 8.47959 58.8569 8.73179ZM58.1329 7.43958V6.92868C58.1329 6.84028 58.1262 6.76878 58.1136 6.71418C58.0742 6.55038 57.9896 6.41258 57.8609 6.30143C57.7309 6.19028 57.5742 6.13438 57.3936 6.13438C57.1329 6.13438 56.9289 6.23513 56.7789 6.43728C56.6303 6.63943 56.5549 6.89748 56.5549 7.21273C56.5549 7.51563 56.6263 7.76133 56.7696 7.95048C56.9209 8.15199 57.1249 8.25274 57.3802 8.25274C57.6096 8.25274 57.7929 8.16889 57.9322 8.00053C58.0669 7.84518 58.1329 7.65798 58.1329 7.43958Z" fill="white"/>
<path d="M64.8324 7.17463C64.8324 7.64589 64.6944 8.03201 64.4184 8.33492C64.1291 8.64628 63.7464 8.80164 63.2671 8.80164C62.8064 8.80164 62.4391 8.65278 62.1644 8.35377C61.8911 8.05541 61.7544 7.67905 61.7544 7.22533C61.7544 6.75081 61.8951 6.36145 62.1777 6.05919C62.4604 5.75692 62.8404 5.60547 63.3197 5.60547C63.7804 5.60547 64.1517 5.75432 64.4317 6.05269C64.6984 6.3426 64.8324 6.71701 64.8324 7.17463ZM64.1084 7.19673C64.1084 6.91397 64.0457 6.67151 63.9211 6.46935C63.7737 6.22494 63.5657 6.10274 63.2937 6.10274C63.0137 6.10274 62.8004 6.22494 62.6531 6.46935C62.5277 6.67151 62.4657 6.91787 62.4657 7.20908C62.4657 7.49184 62.5284 7.7343 62.6531 7.93646C62.8044 8.18086 63.0151 8.30307 63.2871 8.30307C63.5537 8.30307 63.7637 8.17891 63.9144 7.92996C64.0431 7.7239 64.1084 7.47949 64.1084 7.19673Z" fill="white"/>
<path d="M68.589 8.73177H67.891V6.97688C67.891 6.43611 67.6803 6.16573 67.257 6.16573C67.0496 6.16573 66.8823 6.23983 66.753 6.38867C66.6236 6.53751 66.559 6.71299 66.559 6.91383V8.73112H65.8596V6.54336C65.8596 6.27427 65.8516 5.98244 65.835 5.66656H66.4483L66.481 6.14558H66.5003C66.5823 5.99674 66.7036 5.8739 66.8623 5.77575C67.0523 5.66136 67.2636 5.60352 67.4963 5.60352C67.789 5.60352 68.033 5.69581 68.227 5.88105C68.469 6.10788 68.589 6.44651 68.589 6.89628V8.73177Z" fill="white"/>
<path d="M73.291 6.17766H72.5216V7.66617C72.5216 8.04448 72.6583 8.23363 72.929 8.23363C73.0543 8.23363 73.1583 8.22323 73.2403 8.20178L73.2583 8.71853C73.1203 8.76923 72.939 8.79458 72.7156 8.79458C72.4396 8.79458 72.225 8.71268 72.0696 8.54888C71.9136 8.38508 71.8363 8.10948 71.8363 7.72272V6.17766H71.377V5.6674H71.8363V5.1058L72.521 4.9043V5.66675H73.2903V6.17766H73.291Z" fill="white"/>
<path d="M76.9896 8.73193H76.2903V6.98987C76.2903 6.4406 76.0796 6.16564 75.6576 6.16564C75.3336 6.16564 75.1123 6.32489 74.9909 6.6434C74.9703 6.71036 74.9583 6.79226 74.9583 6.88846V8.73128H74.2603V4.26172H74.9583V6.10843H74.9716C75.1916 5.77237 75.5069 5.60467 75.9156 5.60467C76.2049 5.60467 76.4443 5.69697 76.6343 5.88223C76.8709 6.11298 76.9896 6.4562 76.9896 6.90991V8.73193Z" fill="white"/>
<path d="M80.805 7.05491C80.805 7.17711 80.7957 7.27981 80.779 7.36365H78.6837C78.693 7.66655 78.793 7.89729 78.987 8.05718C79.1643 8.20018 79.393 8.27168 79.673 8.27168C79.983 8.27168 80.2657 8.22358 80.5203 8.12673L80.6297 8.59992C80.3317 8.72601 79.981 8.78906 79.575 8.78906C79.0883 8.78906 78.705 8.64932 78.4277 8.36982C78.149 8.09033 78.011 7.71529 78.011 7.24471C78.011 6.78257 78.1397 6.39778 78.399 6.09099C78.6697 5.7634 79.0357 5.59961 79.4977 5.59961C79.9497 5.59961 80.293 5.7634 80.525 6.09099C80.7123 6.35099 80.805 6.67273 80.805 7.05491ZM80.1383 6.87877C80.1437 6.67663 80.0977 6.50243 80.003 6.35554C79.8817 6.16639 79.697 6.07149 79.447 6.07149C79.219 6.07149 79.033 6.16379 78.891 6.34904C78.775 6.49658 78.7063 6.67273 78.6837 6.87877H80.1383Z" fill="white"/>
</svg>
