<svg width="24" height="16" viewBox="0 0 24 16" fill="none" xmlns="http://www.w3.org/2000/svg">
<path fill-rule="evenodd" clip-rule="evenodd" d="M0 8C0 7.76429 0.0902996 7.53823 0.251034 7.37155C0.41177 7.20487 0.629774 7.11124 0.857088 7.11124H21.0724L15.6779 1.51913C15.5982 1.4365 15.535 1.3384 15.4918 1.23043C15.4487 1.12247 15.4265 1.00675 15.4265 0.889887C15.4265 0.773025 15.4487 0.657308 15.4918 0.549342C15.535 0.441376 15.5982 0.343275 15.6779 0.260642C15.7575 0.178008 15.8521 0.11246 15.9563 0.0677387C16.0604 0.0230177 16.172 0 16.2847 0C16.3974 0 16.509 0.0230177 16.6131 0.0677387C16.7172 0.11246 16.8118 0.178008 16.8915 0.260642L23.7482 7.37075C23.828 7.45331 23.8913 7.55139 23.9346 7.65937C23.9778 7.76734 24 7.8831 24 8C24 8.1169 23.9778 8.23266 23.9346 8.34063C23.8913 8.44861 23.828 8.54669 23.7482 8.62924L16.8915 15.7394C16.8118 15.822 16.7172 15.8875 16.6131 15.9323C16.509 15.977 16.3974 16 16.2847 16C16.172 16 16.0604 15.977 15.9563 15.9323C15.8521 15.8875 15.7575 15.822 15.6779 15.7394C15.5982 15.6567 15.535 15.5586 15.4918 15.4507C15.4487 15.3427 15.4265 15.227 15.4265 15.1101C15.4265 14.9933 15.4487 14.8775 15.4918 14.7696C15.535 14.6616 15.5982 14.5635 15.6779 14.4809L21.0724 8.88876H0.857088C0.629774 8.88876 0.41177 8.79513 0.251034 8.62845C0.0902996 8.46178 0 8.23571 0 8Z" fill="#E5004F"/>
</svg>
