<svg width="32" height="32" viewBox="0 0 32 32" fill="none" xmlns="http://www.w3.org/2000/svg">
<path fill-rule="evenodd" clip-rule="evenodd" d="M29.9998 16C29.9998 15.7348 29.8945 15.4805 29.7069 15.2929C29.5194 15.1054 29.2651 15 28.9998 15H5.41384L11.7078 8.70804C11.8008 8.61507 11.8746 8.50469 11.9249 8.38321C11.9752 8.26173 12.0011 8.13153 12.0011 8.00004C12.0011 7.86855 11.9752 7.73835 11.9249 7.61688C11.8746 7.4954 11.8008 7.38502 11.7078 7.29204C11.6149 7.19907 11.5045 7.12531 11.383 7.075C11.2615 7.02468 11.1313 6.99878 10.9998 6.99878C10.8683 6.99878 10.7381 7.02468 10.6167 7.075C10.4952 7.12531 10.3848 7.19907 10.2918 7.29204L2.29183 15.292C2.19871 15.3849 2.12482 15.4953 2.07441 15.6168C2.024 15.7383 1.99805 15.8685 1.99805 16C1.99805 16.1316 2.024 16.2618 2.07441 16.3833C2.12482 16.5048 2.19871 16.6152 2.29183 16.708L10.2918 24.708C10.3848 24.801 10.4952 24.8748 10.6167 24.9251C10.7381 24.9754 10.8683 25.0013 10.9998 25.0013C11.1313 25.0013 11.2615 24.9754 11.383 24.9251C11.5045 24.8748 11.6149 24.801 11.7078 24.708C11.8008 24.6151 11.8746 24.5047 11.9249 24.3832C11.9752 24.2617 12.0011 24.1315 12.0011 24C12.0011 23.8686 11.9752 23.7384 11.9249 23.6169C11.8746 23.4954 11.8008 23.385 11.7078 23.292L5.41384 17H28.9998C29.2651 17 29.5194 16.8947 29.7069 16.7071C29.8945 16.5196 29.9998 16.2653 29.9998 16Z" fill="white"/>
</svg>
