<svg width="32" height="32" viewBox="0 0 32 32" fill="none" xmlns="http://www.w3.org/2000/svg">
<path fill-rule="evenodd" clip-rule="evenodd" d="M16 29.9998C15.7348 29.9998 15.4805 29.8945 15.2929 29.7069C15.1054 29.5194 15 29.2651 15 28.9998L15 5.41383L8.70804 11.7078C8.61507 11.8008 8.50469 11.8746 8.38321 11.9249C8.26173 11.9752 8.13153 12.0011 8.00004 12.0011C7.86856 12.0011 7.73835 11.9752 7.61688 11.9249C7.4954 11.8746 7.38502 11.8008 7.29204 11.7078C7.19907 11.6149 7.12531 11.5045 7.075 11.383C7.02468 11.2615 6.99878 11.1313 6.99878 10.9998C6.99878 10.8683 7.02468 10.7381 7.075 10.6167C7.12531 10.4952 7.19907 10.3848 7.29204 10.2918L15.292 2.29183C15.3849 2.19871 15.4953 2.12482 15.6168 2.07441C15.7383 2.024 15.8685 1.99805 16 1.99805C16.1316 1.99805 16.2618 2.024 16.3833 2.07441C16.5048 2.12482 16.6152 2.19871 16.708 2.29183L24.708 10.2918C24.801 10.3848 24.8748 10.4952 24.9251 10.6167C24.9754 10.7381 25.0013 10.8683 25.0013 10.9998C25.0013 11.1313 24.9754 11.2615 24.9251 11.383C24.8748 11.5045 24.801 11.6149 24.708 11.7078C24.6151 11.8008 24.5047 11.8746 24.3832 11.9249C24.2617 11.9752 24.1315 12.0011 24 12.0011C23.8686 12.0011 23.7384 11.9752 23.6169 11.9249C23.4954 11.8746 23.385 11.8008 23.292 11.7078L17 5.41383L17 28.9998C17 29.2651 16.8947 29.5194 16.7072 29.7069C16.5196 29.8945 16.2653 29.9998 16 29.9998Z" fill="white"/>
</svg>
