<svg width="10" height="14" viewBox="0 0 10 14" fill="none" xmlns="http://www.w3.org/2000/svg">
<path fill-rule="evenodd" clip-rule="evenodd" d="M4.9999 -0.000895303C4.86729 -0.000895309 4.74011 0.0517828 4.64635 0.145551C4.55258 0.239319 4.4999 0.366496 4.4999 0.499105L4.4999 12.2921L1.3539 9.14511C1.30741 9.09862 1.25222 9.06174 1.19148 9.03658C1.13074 9.01142 1.06564 8.99847 0.999899 8.99847C0.934156 8.99847 0.869055 9.01142 0.808316 9.03658C0.747577 9.06174 0.692387 9.09862 0.645899 9.14511C0.599411 9.19159 0.562535 9.24678 0.537376 9.30752C0.512217 9.36826 0.499268 9.43336 0.499268 9.49911C0.499268 9.56485 0.512217 9.62995 0.537376 9.69069C0.562535 9.75143 0.599411 9.80662 0.645899 9.85311L4.6459 13.8531C4.69234 13.8997 4.74752 13.9366 4.80827 13.9618C4.86901 13.987 4.93413 14 4.9999 14C5.06567 14 5.13079 13.987 5.19153 13.9618C5.25228 13.9366 5.30745 13.8997 5.3539 13.8531L9.3539 9.85311C9.40039 9.80662 9.43726 9.75143 9.46242 9.69069C9.48758 9.62995 9.50053 9.56485 9.50053 9.49911C9.50053 9.43336 9.48758 9.36826 9.46242 9.30752C9.43726 9.24678 9.40039 9.19159 9.3539 9.14511C9.30741 9.09862 9.25222 9.06174 9.19148 9.03658C9.13074 9.01142 9.06564 8.99847 8.9999 8.99847C8.93416 8.99847 8.86906 9.01142 8.80832 9.03658C8.74758 9.06174 8.69239 9.09862 8.6459 9.14511L5.4999 12.2921L5.4999 0.499105C5.4999 0.366496 5.44722 0.239319 5.35345 0.145551C5.25969 0.0517828 5.13251 -0.000895298 4.9999 -0.000895303Z" fill="white"/>
</svg>
