<svg width="32" height="32" viewBox="0 0 32 32" fill="none" xmlns="http://www.w3.org/2000/svg">
<path fill-rule="evenodd" clip-rule="evenodd" d="M16 2.00016C15.7348 2.00016 15.4805 2.10552 15.2929 2.29305C15.1054 2.48059 15 2.73495 15 3.00016L15 26.5862L8.70804 20.2922C8.61507 20.1992 8.50469 20.1254 8.38321 20.0751C8.26173 20.0248 8.13153 19.9989 8.00004 19.9989C7.86856 19.9989 7.73835 20.0248 7.61688 20.0751C7.4954 20.1254 7.38502 20.1992 7.29204 20.2922C7.19907 20.3851 7.12531 20.4955 7.075 20.617C7.02468 20.7385 6.99878 20.8687 6.99878 21.0002C6.99878 21.1317 7.02468 21.2619 7.075 21.3833C7.12531 21.5048 7.19907 21.6152 7.29204 21.7082L15.292 29.7082C15.3849 29.8013 15.4953 29.8752 15.6168 29.9256C15.7383 29.976 15.8685 30.002 16 30.002C16.1316 30.002 16.2618 29.976 16.3833 29.9256C16.5048 29.8752 16.6152 29.8013 16.708 29.7082L24.708 21.7082C24.801 21.6152 24.8748 21.5048 24.9251 21.3833C24.9754 21.2619 25.0013 21.1317 25.0013 21.0002C25.0013 20.8687 24.9754 20.7385 24.9251 20.617C24.8748 20.4955 24.801 20.3851 24.708 20.2922C24.6151 20.1992 24.5047 20.1254 24.3832 20.0751C24.2617 20.0248 24.1315 19.9989 24 19.9989C23.8686 19.9989 23.7384 20.0248 23.6169 20.0751C23.4954 20.1254 23.385 20.1992 23.292 20.2922L17 26.5862L17 3.00016C17 2.73495 16.8947 2.48059 16.7072 2.29306C16.5196 2.10552 16.2653 2.00016 16 2.00016Z" fill="white"/>
</svg>
