<svg width="32" height="32" viewBox="0 0 32 32" fill="none" xmlns="http://www.w3.org/2000/svg">
<path fill-rule="evenodd" clip-rule="evenodd" d="M2.00016 16C2.00016 15.7348 2.10552 15.4805 2.29305 15.2929C2.48059 15.1054 2.73495 15 3.00016 15H26.5862L20.2922 8.70804C20.1992 8.61507 20.1254 8.50469 20.0751 8.38321C20.0248 8.26173 19.9989 8.13153 19.9989 8.00004C19.9989 7.86855 20.0248 7.73835 20.0751 7.61688C20.1254 7.4954 20.1992 7.38502 20.2922 7.29204C20.3851 7.19907 20.4955 7.12531 20.617 7.075C20.7385 7.02468 20.8687 6.99878 21.0002 6.99878C21.1317 6.99878 21.2619 7.02468 21.3833 7.075C21.5048 7.12531 21.6152 7.19907 21.7082 7.29204L29.7082 15.292C29.8013 15.3849 29.8752 15.4953 29.9256 15.6168C29.976 15.7383 30.002 15.8685 30.002 16C30.002 16.1316 29.976 16.2618 29.9256 16.3833C29.8752 16.5048 29.8013 16.6152 29.7082 16.708L21.7082 24.708C21.6152 24.801 21.5048 24.8748 21.3833 24.9251C21.2619 24.9754 21.1317 25.0013 21.0002 25.0013C20.8687 25.0013 20.7385 24.9754 20.617 24.9251C20.4955 24.8748 20.3851 24.801 20.2922 24.708C20.1992 24.6151 20.1254 24.5047 20.0751 24.3832C20.0248 24.2617 19.9989 24.1315 19.9989 24C19.9989 23.8686 20.0248 23.7384 20.0751 23.6169C20.1254 23.4954 20.1992 23.385 20.2922 23.292L26.5862 17H3.00016C2.73495 17 2.48059 16.8947 2.29305 16.7071C2.10552 16.5196 2.00016 16.2653 2.00016 16Z" fill="white"/>
</svg>
