<svg width="24" height="23" viewBox="0 0 24 23" fill="none" xmlns="http://www.w3.org/2000/svg">
<g clip-path="url(#clip0)">
<path fill-rule="evenodd" clip-rule="evenodd" d="M3.58542 11.2955C4.75436 11.2955 5.53224 10.5177 5.53224 9.34872L5.5266 8.7346C5.5266 8.7346 5.23719 6.99389 7.55954 6.99389L16.9633 7.05883V9.54213C17.1828 9.76024 17.4797 9.88266 17.7892 9.88266C18.0986 9.88266 18.3955 9.76024 18.6151 9.54213L22.2475 5.91107C22.4657 5.69154 22.5881 5.39465 22.5881 5.08519C22.5881 4.77573 22.4657 4.47883 22.2475 4.25931L18.6151 0.412246C18.3955 0.194133 18.0986 0.0717163 17.7892 0.0717163C17.4797 0.0717163 17.1828 0.194133 16.9633 0.412246V3.01695C16.736 2.9506 7.85319 2.91248 7.85319 2.91248C2.61413 2.91248 1.46777 6.34166 1.46777 7.72236V9.17789C1.46777 9.73953 1.69088 10.2782 2.08802 10.6753C2.48515 11.0724 3.02379 11.2955 3.58542 11.2955Z" fill="white"/>
<path fill-rule="evenodd" clip-rule="evenodd" d="M20.4712 11.3534C19.3022 11.3534 18.3535 12.1779 18.3535 13.3468L18.3564 14.6979C18.2928 15.2019 17.4458 15.5308 16.2034 15.5308H6.97188L6.96906 13.3299C6.74953 13.1118 6.45263 12.9893 6.14317 12.9893C5.83371 12.9893 5.53682 13.1118 5.31729 13.3299L1.68623 16.9609C1.46812 17.1805 1.3457 17.4773 1.3457 17.7868C1.3457 18.0963 1.46812 18.3932 1.68623 18.6127L5.31729 22.2437C5.42562 22.3524 5.55434 22.4387 5.69606 22.4975C5.83778 22.5563 5.98972 22.5866 6.14317 22.5866C6.29662 22.5866 6.44856 22.5563 6.59029 22.4975C6.73201 22.4387 6.86072 22.3524 6.96906 22.2437L6.97188 19.6306H16.2034C21.4425 19.6306 22.5888 16.183 22.5888 14.8009V13.3454C22.5888 12.1779 21.6401 11.3534 20.4712 11.3534Z" fill="#FFA6C4"/>
</g>
<defs>
<clipPath id="clip0">
<rect width="24" height="22.5882" fill="white"/>
</clipPath>
</defs>
</svg>
