<svg width="30" height="32" viewBox="0 0 30 32" fill="none" xmlns="http://www.w3.org/2000/svg">
<path fill-rule="evenodd" clip-rule="evenodd" d="M3.7791 16.002C5.33769 16.002 6.37486 14.9 6.37486 13.244L6.36733 12.374C6.36733 12.374 5.98145 9.90798 9.07792 9.90798L21.6163 9.99998V13.518C21.909 13.827 22.3048 14.0004 22.7175 14.0004C23.1301 14.0004 23.5259 13.827 23.8186 13.518L28.6619 8.37398C28.9527 8.06298 29.116 7.64238 29.116 7.20398C29.116 6.76558 28.9527 6.34498 28.6619 6.03398L23.8186 0.58398C23.5259 0.274986 23.1301 0.101563 22.7175 0.101563C22.3048 0.101562 21.909 0.274986 21.6163 0.58398V4.27398C21.3132 4.17998 9.46945 4.12598 9.46945 4.12598C2.48404 4.12598 0.955566 8.98398 0.955566 10.94V13.002C0.955566 13.7976 1.25304 14.5607 1.78256 15.1233C2.31207 15.6859 3.03025 16.002 3.7791 16.002Z" fill="#E5004F"/>
<path fill-rule="evenodd" clip-rule="evenodd" d="M26.2941 16.0859C24.7355 16.0859 23.4706 17.2539 23.4706 18.9099L23.4743 20.8239C23.3896 21.5379 22.2602 22.0039 20.6037 22.0039H8.29503L8.29126 18.8859C7.99856 18.5769 7.6027 18.4035 7.19008 18.4035C6.77747 18.4035 6.38161 18.5769 6.08891 18.8859L1.2475 24.0299C0.956679 24.3409 0.793457 24.7615 0.793457 25.1999C0.793457 25.6383 0.956679 26.0589 1.2475 26.3699L6.08891 31.5139C6.23335 31.6679 6.40497 31.7901 6.59393 31.8734C6.7829 31.9568 6.98548 31.9997 7.19008 31.9997C7.39468 31.9997 7.59727 31.9568 7.78623 31.8734C7.9752 31.7901 8.14682 31.6679 8.29126 31.5139L8.29503 27.8119H20.6037C27.5891 27.8119 29.1176 22.9279 29.1176 20.9699V18.9079C29.1176 17.2539 27.8527 16.0859 26.2941 16.0859Z" fill="#FFA6C4"/>
</svg>
