<svg width="12" height="12" viewBox="0 0 12 12" fill="none" xmlns="http://www.w3.org/2000/svg">
<path d="M1.5 0C1.10218 0 0.720644 0.158035 0.43934 0.43934C0.158035 0.720644 0 1.10218 0 1.5L0 10.5C0 10.8978 0.158035 11.2794 0.43934 11.5607C0.720644 11.842 1.10218 12 1.5 12H10.5C10.8978 12 11.2794 11.842 11.5607 11.5607C11.842 11.2794 12 10.8978 12 10.5V1.5C12 1.10218 11.842 0.720644 11.5607 0.43934C11.2794 0.158035 10.8978 0 10.5 0L1.5 0ZM9.0225 3.7275C9.12667 3.83156 9.18589 3.97233 9.18743 4.11957C9.18897 4.2668 9.13272 4.40878 9.03075 4.515L6.03675 8.2575C5.98529 8.31292 5.92319 8.3574 5.85415 8.38828C5.78511 8.41915 5.71055 8.43578 5.63494 8.43718C5.55932 8.43858 5.4842 8.42472 5.41407 8.39642C5.34393 8.36813 5.28022 8.32598 5.22675 8.2725L3.243 6.288C3.18773 6.2365 3.14341 6.1744 3.11266 6.1054C3.08192 6.0364 3.06539 5.96192 3.06406 5.88639C3.06272 5.81086 3.07662 5.73584 3.10491 5.6658C3.1332 5.59576 3.17531 5.53214 3.22872 5.47872C3.28214 5.42531 3.34576 5.3832 3.4158 5.35491C3.48584 5.32662 3.56086 5.31272 3.63639 5.31406C3.71192 5.31539 3.7864 5.33192 3.8554 5.36266C3.9244 5.39341 3.9865 5.43773 4.038 5.493L5.6085 7.06275L8.21325 3.744C8.2646 3.68848 8.32663 3.64388 8.39561 3.61288C8.4646 3.58187 8.53913 3.5651 8.61474 3.56356C8.69036 3.56202 8.76551 3.57574 8.8357 3.60391C8.90589 3.63208 8.96968 3.67411 9.02325 3.7275H9.0225Z" fill="#43D72B"/>
</svg>
