<svg width="154" height="45" viewBox="0 0 154 45" fill="none" xmlns="http://www.w3.org/2000/svg">
<path d="M148.296 45H5.7037C2.56809 45 0 42.4673 0 39.375V5.625C0 2.53265 2.56809 1.61381e-08 5.7037 1.61381e-08H148.296C151.432 1.61381e-08 154 2.53265 154 5.625V39.375C154 42.4673 151.432 45 148.296 45Z" fill="white"/>
<path d="M148.296 0.901404C150.937 0.901404 153.086 3.02062 153.086 5.625V39.375C153.086 41.9794 150.937 44.0986 148.296 44.0986H5.7037C3.06289 44.0986 0.914018 41.9794 0.914018 39.375V5.625C0.914018 3.02062 3.06289 0.901404 5.7037 0.901404H148.296ZM148.296 1.61381e-08H5.7037C2.56809 1.61381e-08 0 2.53265 0 5.625V39.375C0 42.4673 2.56809 45 5.7037 45H148.296C151.432 45 154 42.4673 154 39.375V5.625C154 2.53265 151.432 1.61381e-08 148.296 1.61381e-08Z" fill="#A6A6A6"/>
<path d="M54.091 11.5239C54.091 12.4633 53.8058 13.2157 53.244 13.7768C52.598 14.442 51.7567 14.7767 50.7258 14.7767C49.7405 14.7767 48.8992 14.4363 48.209 13.7655C47.5174 13.0849 47.1724 12.2495 47.1724 11.2497C47.1724 10.2498 47.5174 9.41444 48.209 8.73941C48.8992 8.06298 49.7405 7.72266 50.7258 7.72266C51.2163 7.72266 51.684 7.8225 52.1303 8.00814C52.5752 8.19517 52.9374 8.44831 53.1998 8.76051L52.6037 9.35397C52.146 8.82098 51.5229 8.558 50.7258 8.558C50.0071 8.558 49.384 8.80551 48.855 9.30474C48.3316 9.80539 48.0693 10.4537 48.0693 11.2497C48.0693 12.0456 48.3316 12.6996 48.855 13.2002C49.384 13.6938 50.0071 13.9469 50.7258 13.9469C51.4886 13.9469 52.1303 13.6938 52.6365 13.1946C52.9702 12.8641 53.1598 12.4084 53.2097 11.8262H50.7258V11.0134H54.0396C54.0796 11.1892 54.091 11.3593 54.091 11.5239Z" fill="black" stroke="black" stroke-width="0.16" stroke-miterlimit="10"/>
<path d="M59.348 8.70715H56.2352V10.8446H59.0414V11.6573H56.2352V13.7948H59.348V14.623H55.354V7.87891H59.348V8.70715Z" fill="black" stroke="black" stroke-width="0.16" stroke-miterlimit="10"/>
<path d="M63.0586 14.623H62.1774V8.70715H60.2681V7.87891H64.9693V8.70715H63.0586V14.623Z" fill="black" stroke="black" stroke-width="0.16" stroke-miterlimit="10"/>
<path d="M68.3716 14.623V7.87891H69.2514V14.623H68.3716Z" fill="black" stroke="black" stroke-width="0.16" stroke-miterlimit="10"/>
<path d="M73.1519 14.623H72.2778V8.70715H70.3613V7.87891H75.0683V8.70715H73.1519V14.623Z" fill="black" stroke="black" stroke-width="0.16" stroke-miterlimit="10"/>
<path d="M83.9683 13.7543C83.2938 14.4363 82.4582 14.7767 81.4615 14.7767C80.4591 14.7767 79.6235 14.4363 78.949 13.7543C78.276 13.0736 77.9409 12.2383 77.9409 11.2497C77.9409 10.261 78.276 9.42569 78.949 8.74504C79.6235 8.06298 80.4591 7.72266 81.4615 7.72266C82.4525 7.72266 83.2881 8.06298 83.9626 8.75066C84.6413 9.43694 84.9764 10.2667 84.9764 11.2497C84.9764 12.2383 84.6413 13.0736 83.9683 13.7543ZM79.6007 13.1889C80.1083 13.6938 80.7257 13.9469 81.4615 13.9469C82.1916 13.9469 82.8147 13.6938 83.3166 13.1889C83.8228 12.6841 84.0795 12.0358 84.0795 11.2497C84.0795 10.4635 83.8228 9.81523 83.3166 9.31037C82.8147 8.80551 82.1916 8.55237 81.4615 8.55237C80.7257 8.55237 80.1083 8.80551 79.6007 9.31037C79.0945 9.81523 78.8378 10.4635 78.8378 11.2497C78.8378 12.0358 79.0945 12.6841 79.6007 13.1889Z" fill="black" stroke="black" stroke-width="0.16" stroke-miterlimit="10"/>
<path d="M86.2129 14.623V7.87891H87.2823L90.6075 13.124H90.646L90.6075 11.8275V7.87891H91.4873V14.623H90.569L87.087 9.11917H87.0485L87.087 10.4213V14.623H86.2129Z" fill="black" stroke="black" stroke-width="0.16" stroke-miterlimit="10"/>
<path d="M77.7243 24.4705C75.045 24.4705 72.8562 26.4814 72.8562 29.2559C72.8562 32.0079 75.045 34.0399 77.7243 34.0399C80.4093 34.0399 82.5981 32.0079 82.5981 29.2559C82.5981 26.4814 80.4093 24.4705 77.7243 24.4705ZM77.7243 32.1556C76.2541 32.1556 74.9893 30.9589 74.9893 29.2559C74.9893 27.5305 76.2541 26.3549 77.7243 26.3549C79.1944 26.3549 80.4649 27.5305 80.4649 29.2559C80.4649 30.9589 79.1944 32.1556 77.7243 32.1556ZM67.1025 24.4705C64.4175 24.4705 62.2344 26.4814 62.2344 29.2559C62.2344 32.0079 64.4175 34.0399 67.1025 34.0399C69.7861 34.0399 71.9707 32.0079 71.9707 29.2559C71.9707 26.4814 69.7861 24.4705 67.1025 24.4705ZM67.1025 32.1556C65.631 32.1556 64.3619 30.9589 64.3619 29.2559C64.3619 27.5305 65.631 26.3549 67.1025 26.3549C68.5727 26.3549 69.8375 27.5305 69.8375 29.2559C69.8375 30.9589 68.5727 32.1556 67.1025 32.1556ZM54.4632 25.9372V27.9706H59.3869C59.2429 29.1069 58.8579 29.9422 58.2675 30.5243C57.5489 31.2275 56.4295 32.0079 54.4632 32.0079C51.4331 32.0079 49.0603 29.5962 49.0603 26.608C49.0603 23.6198 51.4331 21.2081 54.4632 21.2081C56.1015 21.2081 57.2936 21.8395 58.1734 22.6579L59.6264 21.2249C58.3959 20.0662 56.7589 19.1761 54.4632 19.1761C50.308 19.1761 46.8159 22.5102 46.8159 26.608C46.8159 30.7057 50.308 34.0399 54.4632 34.0399C56.709 34.0399 58.3959 33.3143 59.722 31.9531C61.0809 30.6129 61.5044 28.7286 61.5044 27.207C61.5044 26.7345 61.4644 26.3 61.3931 25.9372H54.4632ZM106.147 27.5136C105.747 26.4435 104.51 24.4705 101.992 24.4705C99.4967 24.4705 97.4191 26.4097 97.4191 29.2559C97.4191 31.9362 99.4753 34.0399 102.232 34.0399C104.46 34.0399 105.747 32.6998 106.276 31.9193L104.621 30.8323C104.07 31.6282 103.318 32.1556 102.232 32.1556C101.152 32.1556 100.378 31.6676 99.8817 30.7057L106.371 28.0578L106.147 27.5136ZM99.5309 29.1069C99.4753 27.2619 100.984 26.3169 102.065 26.3169C102.912 26.3169 103.63 26.7346 103.87 27.3322L99.5309 29.1069ZM94.2564 33.7488H96.3896V19.6865H94.2564V33.7488ZM90.7629 25.5364H90.6916C90.2125 24.9768 89.2985 24.4705 88.1406 24.4705C85.7109 24.4705 83.4893 26.5742 83.4893 29.2714C83.4893 31.9531 85.7109 34.0399 88.1406 34.0399C89.2985 34.0399 90.2125 33.5294 90.6916 32.9529H90.7629V33.6391C90.7629 35.4686 89.7719 36.4516 88.1734 36.4516C86.8701 36.4516 86.0617 35.5235 85.728 34.743L83.8729 35.5066C84.4076 36.775 85.8235 38.3359 88.1734 38.3359C90.6745 38.3359 92.7849 36.8847 92.7849 33.3537V24.7616H90.7629V25.5364ZM88.3232 32.1556C86.853 32.1556 85.6225 30.942 85.6225 29.2714C85.6225 27.5853 86.853 26.3549 88.3232 26.3549C89.7719 26.3549 90.9141 27.5853 90.9141 29.2714C90.9141 30.942 89.7719 32.1556 88.3232 32.1556ZM116.134 19.6865H111.032V33.7488H113.16V28.4206H116.134C118.497 28.4206 120.814 26.7345 120.814 24.0529C120.814 21.3726 118.491 19.6865 116.134 19.6865ZM116.19 26.4646H113.16V21.6426H116.19C117.778 21.6426 118.685 22.9434 118.685 24.0529C118.685 25.1413 117.778 26.4646 116.19 26.4646ZM129.341 24.4438C127.804 24.4438 126.206 25.1132 125.548 26.5967L127.436 27.3772C127.843 26.5967 128.59 26.3436 129.38 26.3436C130.483 26.3436 131.603 26.9975 131.62 28.152V28.2997C131.235 28.0803 130.411 27.7555 129.397 27.7555C127.364 27.7555 125.292 28.8594 125.292 30.9195C125.292 32.8038 126.957 34.0174 128.829 34.0174C130.261 34.0174 131.051 33.3804 131.547 32.6393H131.62V33.7263H133.675V28.332C133.675 25.8388 131.787 24.4438 129.341 24.4438ZM129.085 32.1499C128.389 32.1499 127.419 31.8096 127.419 30.9589C127.419 29.8704 128.628 29.4528 129.675 29.4528C130.612 29.4528 131.051 29.6567 131.62 29.9253C131.453 31.2275 130.317 32.1499 129.085 32.1499ZM141.161 24.7518L138.715 30.8478H138.643L136.114 24.7518H133.82L137.619 33.2707L135.451 38.0111H137.674L143.528 24.7518H141.161ZM121.984 33.7488H124.117V19.6865H121.984V33.7488Z" fill="black"/>
<path d="M11.904 8.48069C11.5689 8.82662 11.375 9.3652 11.375 10.0627V34.9417C11.375 35.6392 11.5689 36.1777 11.904 36.5237L11.9867 36.5996L26.1233 22.6639V22.3348L11.9867 8.39913L11.904 8.48069Z" fill="url(#paint0_linear)"/>
<path d="M30.83 27.3125L26.123 22.665V22.3359L30.8357 17.6885L30.9413 17.7489L36.5223 20.8805C38.1151 21.7693 38.1151 23.2317 36.5223 24.126L30.9413 27.252L30.83 27.3125Z" fill="url(#paint1_linear)"/>
<path d="M30.9408 27.2522L26.1226 22.5005L11.9033 36.5248C12.4323 37.0733 13.295 37.1394 14.2761 36.5909L30.9408 27.2522Z" fill="url(#paint2_linear)"/>
<path d="M30.9408 17.7482L14.2761 8.40922C13.295 7.8664 12.4323 7.93249 11.9033 8.48093L26.1226 22.5L30.9408 17.7482Z" fill="url(#paint3_linear)"/>
<defs>
<linearGradient id="paint0_linear" x1="24.8682" y1="35.2008" x2="5.99008" y2="16.0583" gradientUnits="userSpaceOnUse">
<stop stop-color="#00A0FF"/>
<stop offset="0.0066" stop-color="#00A1FF"/>
<stop offset="0.2601" stop-color="#00BEFF"/>
<stop offset="0.5122" stop-color="#00D2FF"/>
<stop offset="0.7604" stop-color="#00DFFF"/>
<stop offset="1" stop-color="#00E3FF"/>
</linearGradient>
<linearGradient id="paint1_linear" x1="38.5964" y1="22.4989" x2="10.994" y2="22.4989" gradientUnits="userSpaceOnUse">
<stop stop-color="#FFE000"/>
<stop offset="0.4087" stop-color="#FFBD00"/>
<stop offset="0.7754" stop-color="#FFA500"/>
<stop offset="1" stop-color="#FF9C00"/>
</linearGradient>
<linearGradient id="paint2_linear" x1="28.3208" y1="19.9174" x2="2.72052" y2="-6.0413" gradientUnits="userSpaceOnUse">
<stop stop-color="#FF3A44"/>
<stop offset="1" stop-color="#C31162"/>
</linearGradient>
<linearGradient id="paint3_linear" x1="8.32403" y1="44.802" x2="19.756" y2="33.2104" gradientUnits="userSpaceOnUse">
<stop stop-color="#32A071"/>
<stop offset="0.0685" stop-color="#2DA771"/>
<stop offset="0.4762" stop-color="#15CF74"/>
<stop offset="0.8009" stop-color="#06E775"/>
<stop offset="1" stop-color="#00F076"/>
</linearGradient>
</defs>
</svg>
