<svg width="90" height="26" viewBox="0 0 90 26" fill="none" xmlns="http://www.w3.org/2000/svg">
<path d="M86.6667 26H3.33333C1.50083 26 0 24.5367 0 22.75V3.25C0 1.46331 1.50083 1.37408e-06 3.33333 1.37408e-06H86.6667C88.4992 1.37408e-06 90 1.46331 90 3.25V22.75C90 24.5367 88.4992 26 86.6667 26Z" fill="black"/>
<path d="M86.6667 0.520812C88.21 0.520812 89.4658 1.74525 89.4658 3.25V22.75C89.4658 24.2548 88.21 25.4792 86.6667 25.4792H3.33333C1.79 25.4792 0.534166 24.2548 0.534166 22.75V3.25C0.534166 1.74525 1.79 0.520812 3.33333 0.520812H86.6667ZM86.6667 1.37408e-06H3.33333C1.50083 1.37408e-06 0 1.46331 0 3.25V22.75C0 24.5367 1.50083 26 3.33333 26H86.6667C88.4992 26 90 24.5367 90 22.75V3.25C90 1.46331 88.4992 1.37408e-06 86.6667 1.37408e-06Z" fill="#A6A6A6"/>
<path d="M31.6117 6.6572C31.6117 7.19997 31.445 7.63468 31.1167 7.95887C30.7392 8.3432 30.2475 8.53658 29.645 8.53658C29.0692 8.53658 28.5775 8.33995 28.1742 7.95237C27.77 7.55911 27.5684 7.07647 27.5684 6.49876C27.5684 5.92105 27.77 5.43841 28.1742 5.0484C28.5775 4.65757 29.0692 4.46094 29.645 4.46094C29.9317 4.46094 30.205 4.51863 30.4659 4.62588C30.7259 4.73395 30.9375 4.8802 31.0909 5.06058L30.7425 5.40347C30.475 5.09552 30.1109 4.94358 29.645 4.94358C29.225 4.94358 28.8609 5.08658 28.5517 5.37503C28.2459 5.66429 28.0925 6.03887 28.0925 6.49876C28.0925 6.95865 28.2459 7.33648 28.5517 7.62574C28.8609 7.91093 29.225 8.05719 29.645 8.05719C30.0909 8.05719 30.4659 7.91093 30.7617 7.62249C30.9567 7.43154 31.0675 7.16828 31.0967 6.8319H29.645V6.36225H31.5817C31.605 6.46382 31.6117 6.56214 31.6117 6.6572Z" fill="white" stroke="white" stroke-width="0.16" stroke-miterlimit="10"/>
<path d="M34.684 5.02932H32.8649V6.26427H34.5049V6.73388H32.8649V7.96883H34.684V8.44737H32.3499V4.55078H34.684V5.02932Z" fill="white" stroke="white" stroke-width="0.16" stroke-miterlimit="10"/>
<path d="M36.8525 8.44737H36.3375V5.02932H35.2217V4.55078H37.9692V5.02932H36.8525V8.44737Z" fill="white" stroke="white" stroke-width="0.16" stroke-miterlimit="10"/>
<path d="M39.9575 8.44737V4.55078H40.4717V8.44737H39.9575Z" fill="white" stroke="white" stroke-width="0.16" stroke-miterlimit="10"/>
<path d="M42.751 8.44737H42.2401V5.02932H41.1201V4.55078H43.871V5.02932H42.751V8.44737Z" fill="white" stroke="white" stroke-width="0.16" stroke-miterlimit="10"/>
<path d="M49.0723 7.94587C48.6781 8.33995 48.1898 8.53658 47.6073 8.53658C47.0215 8.53658 46.5331 8.33995 46.139 7.94587C45.7456 7.55261 45.5498 7.06997 45.5498 6.49876C45.5498 5.92755 45.7456 5.44491 46.139 5.05165C46.5331 4.65757 47.0215 4.46094 47.6073 4.46094C48.1864 4.46094 48.6748 4.65757 49.0689 5.0549C49.4656 5.45141 49.6614 5.9308 49.6614 6.49876C49.6614 7.06997 49.4656 7.55261 49.0723 7.94587ZM46.5198 7.61924C46.8165 7.91093 47.1773 8.05719 47.6073 8.05719C48.0339 8.05719 48.3981 7.91093 48.6914 7.61924C48.9873 7.32754 49.1373 6.95296 49.1373 6.49876C49.1373 6.04456 48.9873 5.66998 48.6914 5.37828C48.3981 5.08659 48.0339 4.94033 47.6073 4.94033C47.1773 4.94033 46.8165 5.08659 46.5198 5.37828C46.224 5.66998 46.074 6.04456 46.074 6.49876C46.074 6.95296 46.224 7.32754 46.5198 7.61924Z" fill="white" stroke="white" stroke-width="0.16" stroke-miterlimit="10"/>
<path d="M50.3843 8.44737V4.55078H51.0093L52.9526 7.58128H52.9751L52.9526 6.83219V4.55078H53.4667V8.44737H52.9301L50.8951 5.26738H50.8726L50.8951 6.01972V8.44737H50.3843Z" fill="white" stroke="white" stroke-width="0.16" stroke-miterlimit="10"/>
<path d="M45.4232 14.1393C43.8574 14.1393 42.5782 15.3011 42.5782 16.9042C42.5782 18.4942 43.8574 19.6682 45.4232 19.6682C46.9923 19.6682 48.2715 18.4942 48.2715 16.9042C48.2715 15.3011 46.9923 14.1393 45.4232 14.1393ZM45.4232 18.5795C44.564 18.5795 43.8249 17.8881 43.8249 16.9042C43.8249 15.9072 44.564 15.228 45.4232 15.228C46.2823 15.228 47.0248 15.9072 47.0248 16.9042C47.0248 17.8881 46.2823 18.5795 45.4232 18.5795ZM39.2157 14.1393C37.6465 14.1393 36.3707 15.3011 36.3707 16.9042C36.3707 18.4942 37.6465 19.6682 39.2157 19.6682C40.784 19.6682 42.0607 18.4942 42.0607 16.9042C42.0607 15.3011 40.784 14.1393 39.2157 14.1393ZM39.2157 18.5795C38.3557 18.5795 37.614 17.8881 37.614 16.9042C37.614 15.9072 38.3557 15.228 39.2157 15.228C40.0749 15.228 40.814 15.9072 40.814 16.9042C40.814 17.8881 40.0749 18.5795 39.2157 18.5795ZM31.829 14.9867V16.1615H34.7065C34.6224 16.818 34.3974 17.3007 34.0524 17.637C33.6324 18.0433 32.9782 18.4942 31.829 18.4942C30.0582 18.4942 28.6715 17.1008 28.6715 15.3742C28.6715 13.6477 30.0582 12.2543 31.829 12.2543C32.7865 12.2543 33.4832 12.6191 33.9974 13.092L34.8465 12.264C34.1274 11.5946 33.1707 11.0802 31.829 11.0802C29.4007 11.0802 27.3599 13.0067 27.3599 15.3742C27.3599 17.7418 29.4007 19.6682 31.829 19.6682C33.1415 19.6682 34.1274 19.249 34.9024 18.4625C35.6965 17.6882 35.944 16.5995 35.944 15.7204C35.944 15.4474 35.9207 15.1963 35.879 14.9867H31.829ZM62.034 15.8975C61.7998 15.2792 61.0773 14.1393 59.6057 14.1393C58.1473 14.1393 56.9332 15.2597 56.9332 16.9042C56.9332 18.4528 58.1348 19.6682 59.7457 19.6682C61.0482 19.6682 61.7998 18.8939 62.109 18.443L61.1423 17.815C60.8198 18.2748 60.3807 18.5795 59.7457 18.5795C59.1148 18.5795 58.6623 18.2976 58.3723 17.7418L62.1648 16.2119L62.034 15.8975ZM58.1673 16.818C58.1348 15.752 59.0165 15.2061 59.6482 15.2061C60.1432 15.2061 60.5632 15.4474 60.7032 15.7927L58.1673 16.818ZM55.0848 19.5001H56.3315V11.3752H55.0848V19.5001ZM53.0432 14.7551H53.0015C52.7215 14.4318 52.1873 14.1393 51.5107 14.1393C50.0907 14.1393 48.7923 15.3547 48.7923 16.9131C48.7923 18.4625 50.0907 19.6682 51.5107 19.6682C52.1873 19.6682 52.7215 19.3733 53.0015 19.0402H53.0432V19.4367C53.0432 20.4937 52.464 21.0617 51.5298 21.0617C50.7682 21.0617 50.2957 20.5254 50.1007 20.0745L49.0165 20.5157C49.329 21.2485 50.1565 22.1504 51.5298 22.1504C52.9915 22.1504 54.2248 21.3119 54.2248 19.2717V14.3074H53.0432V14.7551ZM51.6173 18.5795C50.7582 18.5795 50.039 17.8783 50.039 16.9131C50.039 15.9389 50.7582 15.228 51.6173 15.228C52.464 15.228 53.1315 15.9389 53.1315 16.9131C53.1315 17.8783 52.464 18.5795 51.6173 18.5795ZM67.8707 11.3752H64.889V19.5001H66.1323V16.4215H67.8707C69.2515 16.4215 70.6057 15.4474 70.6057 13.898C70.6057 12.3494 69.2482 11.3752 67.8707 11.3752ZM67.9032 15.2914H66.1323V12.5054H67.9032C68.8315 12.5054 69.3615 13.2569 69.3615 13.898C69.3615 14.5268 68.8315 15.2914 67.9032 15.2914ZM75.589 14.1238C74.6907 14.1238 73.7565 14.5106 73.3723 15.3677L74.4757 15.8187C74.7132 15.3677 75.1498 15.2215 75.6115 15.2215C76.2565 15.2215 76.9107 15.5993 76.9207 16.2664V16.3517C76.6957 16.2249 76.214 16.0372 75.6215 16.0372C74.4332 16.0372 73.2223 16.675 73.2223 17.8653C73.2223 18.9541 74.1957 19.6552 75.2898 19.6552C76.1265 19.6552 76.5882 19.2872 76.8782 18.859H76.9207V19.4871H78.1215V16.3704C78.1215 14.9298 77.0182 14.1238 75.589 14.1238ZM75.439 18.5763C75.0323 18.5763 74.4657 18.3796 74.4657 17.8881C74.4657 17.2592 75.1723 17.0179 75.784 17.0179C76.3315 17.0179 76.5882 17.1357 76.9207 17.2909C76.8232 18.0433 76.159 18.5763 75.439 18.5763ZM82.4965 14.3018L81.0673 17.8239H81.0248L79.5473 14.3018H78.2065L80.4265 19.2238L79.1598 21.9627H80.459L83.8798 14.3018H82.4965ZM71.289 19.5001H72.5357V11.3752H71.289V19.5001Z" fill="white"/>
<path d="M6.95711 4.89805C6.76128 5.09792 6.64795 5.4091 6.64795 5.81209V20.1866C6.64795 20.5896 6.76128 20.9008 6.95711 21.1007L7.00545 21.1445L15.2671 13.0928V12.9027L7.00545 4.85092L6.95711 4.89805Z" fill="url(#paint0_linear)"/>
<path d="M18.0174 15.7812L15.2666 13.096V12.9059L18.0208 10.2207L18.0824 10.2556L21.3441 12.065C22.2749 12.5785 22.2749 13.4235 21.3441 13.9402L18.0824 15.7463L18.0174 15.7812Z" fill="url(#paint1_linear)"/>
<path d="M18.0823 15.7481L15.2665 13.0027L6.95654 21.1057C7.26571 21.4225 7.76987 21.4607 8.3432 21.1439L18.0823 15.7481Z" fill="url(#paint2_linear)"/>
<path d="M18.0823 10.2545L8.3432 4.85866C7.76987 4.54503 7.26571 4.58322 6.95654 4.9001L15.2665 13L18.0823 10.2545Z" fill="url(#paint3_linear)"/>
<defs>
<linearGradient id="paint0_linear" x1="14.5336" y1="20.3363" x2="3.62867" y2="9.15166" gradientUnits="userSpaceOnUse">
<stop stop-color="#00A0FF"/>
<stop offset="0.0066" stop-color="#00A1FF"/>
<stop offset="0.2601" stop-color="#00BEFF"/>
<stop offset="0.5122" stop-color="#00D2FF"/>
<stop offset="0.7604" stop-color="#00DFFF"/>
<stop offset="1" stop-color="#00E3FF"/>
</linearGradient>
<linearGradient id="paint1_linear" x1="22.5562" y1="13.0001" x2="6.42492" y2="13.0001" gradientUnits="userSpaceOnUse">
<stop stop-color="#FFE000"/>
<stop offset="0.4087" stop-color="#FFBD00"/>
<stop offset="0.7754" stop-color="#FFA500"/>
<stop offset="1" stop-color="#FF9C00"/>
</linearGradient>
<linearGradient id="paint2_linear" x1="16.5512" y1="11.5103" x2="1.76322" y2="-3.65701" gradientUnits="userSpaceOnUse">
<stop stop-color="#FF3A44"/>
<stop offset="1" stop-color="#C31162"/>
</linearGradient>
<linearGradient id="paint3_linear" x1="4.86475" y1="25.8856" x2="11.4684" y2="19.1128" gradientUnits="userSpaceOnUse">
<stop stop-color="#32A071"/>
<stop offset="0.0685" stop-color="#2DA771"/>
<stop offset="0.4762" stop-color="#15CF74"/>
<stop offset="0.8009" stop-color="#06E775"/>
<stop offset="1" stop-color="#00F076"/>
</linearGradient>
</defs>
</svg>
