<svg width="32" height="32" viewBox="0 0 32 32" fill="none" xmlns="http://www.w3.org/2000/svg">
<path d="M15.9998 0.347839C20.2525 0.347839 20.7831 0.363491 22.4517 0.441752C24.1186 0.520013 25.2534 0.781405 26.252 1.16958C27.285 1.56714 28.1553 2.10558 29.0256 2.97427C29.8215 3.75672 30.4373 4.7032 30.8303 5.74784C31.2169 6.74488 31.4798 7.88123 31.5581 9.54819C31.6317 11.2167 31.652 11.7473 31.652 16C31.652 20.2527 31.6364 20.7833 31.5581 22.4518C31.4798 24.1188 31.2169 25.2536 30.8303 26.2522C30.4385 27.2974 29.8225 28.2441 29.0256 29.0258C28.2429 29.8214 27.2965 30.4372 26.252 30.8305C25.255 31.2171 24.1186 31.48 22.4517 31.5583C20.7831 31.6318 20.2525 31.6522 15.9998 31.6522C11.7471 31.6522 11.2165 31.6365 9.548 31.5583C7.88105 31.48 6.74626 31.2171 5.74766 30.8305C4.7026 30.4383 3.75596 29.8224 2.97409 29.0258C2.17803 28.2434 1.56216 27.2969 1.1694 26.2522C0.781222 25.2551 0.51983 24.1188 0.441569 22.4518C0.368004 20.7833 0.347656 20.2527 0.347656 16C0.347656 11.7473 0.363308 11.2167 0.441569 9.54819C0.51983 7.87967 0.781222 6.74645 1.1694 5.74784C1.56107 4.70256 2.17709 3.75582 2.97409 2.97427C3.75618 2.17794 4.70276 1.56202 5.74766 1.16958C6.74626 0.781405 7.87948 0.520013 9.548 0.441752C11.2165 0.368187 11.7471 0.347839 15.9998 0.347839ZM15.9998 8.17393C13.9242 8.17393 11.9336 8.99846 10.466 10.4661C8.99827 11.9338 8.17374 13.9244 8.17374 16C8.17374 18.0756 8.99827 20.0662 10.466 21.5339C11.9336 23.0016 13.9242 23.8261 15.9998 23.8261C18.0754 23.8261 20.066 23.0016 21.5337 21.5339C23.0014 20.0662 23.8259 18.0756 23.8259 16C23.8259 13.9244 23.0014 11.9338 21.5337 10.4661C20.066 8.99846 18.0754 8.17393 15.9998 8.17393ZM26.1737 7.78262C26.1737 7.26372 25.9676 6.76607 25.6007 6.39915C25.2338 6.03223 24.7361 5.8261 24.2172 5.8261C23.6983 5.8261 23.2007 6.03223 22.8337 6.39915C22.4668 6.76607 22.2607 7.26372 22.2607 7.78262C22.2607 8.30152 22.4668 8.79917 22.8337 9.16609C23.2007 9.53301 23.6983 9.73914 24.2172 9.73914C24.7361 9.73914 25.2338 9.53301 25.6007 9.16609C25.9676 8.79917 26.1737 8.30152 26.1737 7.78262ZM15.9998 11.3044C17.2452 11.3044 18.4396 11.7991 19.3202 12.6797C20.2008 13.5603 20.6955 14.7547 20.6955 16C20.6955 17.2454 20.2008 18.4397 19.3202 19.3203C18.4396 20.2009 17.2452 20.6957 15.9998 20.6957C14.7545 20.6957 13.5601 20.2009 12.6795 19.3203C11.7989 18.4397 11.3042 17.2454 11.3042 16C11.3042 14.7547 11.7989 13.5603 12.6795 12.6797C13.5601 11.7991 14.7545 11.3044 15.9998 11.3044Z" fill="#B694C0"/>
</svg>
