<svg width="20" height="12" viewBox="0 0 20 12" fill="none" xmlns="http://www.w3.org/2000/svg">
<path fill-rule="evenodd" clip-rule="evenodd" d="M19.5309 11.0316C19.4612 11.1015 19.3784 11.1569 19.2873 11.1947C19.1962 11.2325 19.0985 11.252 18.9999 11.252C18.9012 11.252 18.8035 11.2325 18.7124 11.1947C18.6213 11.1569 18.5385 11.1015 18.4689 11.0316L9.99988 2.56111L1.53088 11.0316C1.46115 11.1013 1.37837 11.1567 1.28726 11.1944C1.19615 11.2321 1.0985 11.2516 0.999884 11.2516C0.901268 11.2516 0.803617 11.2321 0.712507 11.1944C0.621399 11.1567 0.538614 11.1013 0.468883 11.0316C0.399151 10.9619 0.343838 10.8791 0.306099 10.788C0.26836 10.6969 0.248936 10.5992 0.248936 10.5006C0.248936 10.402 0.26836 10.3043 0.306099 10.2132C0.343838 10.1221 0.399151 10.0393 0.468883 9.96961L9.46888 0.969613C9.53855 0.899768 9.62131 0.844354 9.71243 0.806544C9.80355 0.768735 9.90123 0.749272 9.99988 0.749272C10.0985 0.749272 10.1962 0.768735 10.2873 0.806544C10.3784 0.844354 10.4612 0.899768 10.5309 0.969613L19.5309 9.96961C19.6007 10.0393 19.6561 10.122 19.6939 10.2132C19.7318 10.3043 19.7512 10.402 19.7512 10.5006C19.7512 10.5993 19.7318 10.6969 19.6939 10.7881C19.6561 10.8792 19.6007 10.9619 19.5309 11.0316Z" fill="#B694C0"/>
</svg>
