<svg width="10" height="16" viewBox="0 0 10 16" fill="none" xmlns="http://www.w3.org/2000/svg">
<path d="M5 0C2.238 0 0 2.23039 0 4.99312C0 9.77011 5 16 5 16C5 16 10 9.7691 10 4.99312C10 2.23139 7.762 0 5 0ZM5 7.75585C4.28392 7.75585 3.59716 7.47121 3.09081 6.96454C2.58446 6.45788 2.3 5.77069 2.3 5.05416C2.3 4.33763 2.58446 3.65044 3.09081 3.14378C3.59716 2.63711 4.28392 2.35247 5 2.35247C5.71608 2.35247 6.40284 2.63711 6.90919 3.14378C7.41554 3.65044 7.7 4.33763 7.7 5.05416C7.7 5.77069 7.41554 6.45788 6.90919 6.96454C6.40284 7.47121 5.71608 7.75585 5 7.75585Z" fill="#FFA6C4"/>
</svg>
