<svg viewBox="0 0 24 29" fill="none" xmlns="http://www.w3.org/2000/svg">
<path d="M12 0.333313C15.1826 0.333313 18.2348 1.5976 20.4853 3.84803C22.7357 6.09847 24 9.15072 24 12.3333C24 17.3013 20.2133 22.5066 12.8 28.0666C12.5692 28.2397 12.2885 28.3333 12 28.3333C11.7115 28.3333 11.4308 28.2397 11.2 28.0666C3.78667 22.5066 0 17.3013 0 12.3333C0 9.15072 1.26428 6.09847 3.51472 3.84803C5.76515 1.5976 8.8174 0.333313 12 0.333313ZM12 8.33331C10.9391 8.33331 9.92172 8.75474 9.17157 9.50489C8.42143 10.255 8 11.2724 8 12.3333C8 13.3942 8.42143 14.4116 9.17157 15.1617C9.92172 15.9119 10.9391 16.3333 12 16.3333C13.0609 16.3333 14.0783 15.9119 14.8284 15.1617C15.5786 14.4116 16 13.3942 16 12.3333C16 11.2724 15.5786 10.255 14.8284 9.50489C14.0783 8.75474 13.0609 8.33331 12 8.33331Z" fill="#B694C0"/>
</svg>
