<svg width="14" height="8" viewBox="0 0 14 8" fill="none" xmlns="http://www.w3.org/2000/svg">
<path fill-rule="evenodd" clip-rule="evenodd" d="M13.3539 7.35506C13.3075 7.40162 13.2523 7.43857 13.1915 7.46377C13.1308 7.48898 13.0657 7.50195 12.9999 7.50195C12.9341 7.50195 12.869 7.48898 12.8083 7.46377C12.7475 7.43857 12.6923 7.40162 12.6459 7.35506L6.9999 1.70806L1.3539 7.35506C1.30741 7.40155 1.25222 7.43842 1.19148 7.46358C1.13074 7.48874 1.06564 7.50169 0.9999 7.50169C0.934156 7.50169 0.869056 7.48874 0.808316 7.46358C0.747577 7.43843 0.692388 7.40155 0.6459 7.35506C0.599412 7.30857 0.562535 7.25338 0.537376 7.19264C0.512217 7.1319 0.499268 7.0668 0.499268 7.00106C0.499268 6.93532 0.512217 6.87022 0.537376 6.80948C0.562535 6.74874 0.599412 6.69355 0.6459 6.64706L6.6459 0.647059C6.69235 0.600496 6.74752 0.563553 6.80827 0.538347C6.86901 0.51314 6.93413 0.500166 6.9999 0.500166C7.06567 0.500166 7.13079 0.51314 7.19153 0.538347C7.25228 0.563553 7.30745 0.600496 7.3539 0.647059L13.3539 6.64706C13.4005 6.69351 13.4374 6.74868 13.4626 6.80943C13.4878 6.87017 13.5008 6.93529 13.5008 7.00106C13.5008 7.06683 13.4878 7.13195 13.4626 7.19269C13.4374 7.25344 13.4005 7.30861 13.3539 7.35506Z" fill="#E5004F"/>
</svg>
