<svg width="22" height="14" viewBox="0 0 22 14" fill="none" xmlns="http://www.w3.org/2000/svg">
<path fill-rule="evenodd" clip-rule="evenodd" d="M0.00195226 7C0.00195228 7.20625 0.0809642 7.40405 0.221608 7.5499C0.362251 7.69574 0.553004 7.77767 0.751905 7.77767L18.4403 7.77767L13.7201 12.6708C13.6503 12.7431 13.595 12.8289 13.5573 12.9234C13.5196 13.0178 13.5001 13.1191 13.5001 13.2213C13.5001 13.3236 13.5196 13.4249 13.5573 13.5193C13.595 13.6138 13.6504 13.6996 13.7201 13.7719C13.7898 13.8442 13.8726 13.9016 13.9637 13.9407C14.0548 13.9799 14.1524 14 14.251 14C14.3497 14 14.4473 13.9799 14.5384 13.9407C14.6295 13.9016 14.7123 13.8442 14.782 13.7719L20.7816 7.55059C20.8515 7.47835 20.9069 7.39253 20.9447 7.29806C20.9825 7.20358 21.002 7.10229 21.002 7C21.002 6.89771 20.9825 6.79643 20.9447 6.70195C20.9069 6.60747 20.8515 6.52165 20.7816 6.44941L14.782 0.228063C14.7123 0.155758 14.6295 0.0984034 14.5384 0.0592722C14.4473 0.020142 14.3497 1.36419e-06 14.251 1.37027e-06C14.1524 1.37636e-06 14.0548 0.020142 13.9637 0.0592722C13.8726 0.0984034 13.7898 0.155758 13.7201 0.228063C13.6503 0.300367 13.595 0.386205 13.5573 0.480675C13.5196 0.575145 13.5001 0.676399 13.5001 0.778653C13.5001 0.880907 13.5196 0.982159 13.5573 1.07663C13.595 1.1711 13.6503 1.25694 13.7201 1.32924L18.4403 6.22233L0.751904 6.22233C0.553004 6.22233 0.36225 6.30427 0.221608 6.45011C0.0809641 6.59595 0.00195223 6.79375 0.00195226 7Z" fill="#5C3668"/>
</svg>
