<svg width="14" height="8" viewBox="0 0 14 8" fill="none" xmlns="http://www.w3.org/2000/svg">
<path fill-rule="evenodd" clip-rule="evenodd" d="M13.3539 0.64494C13.3075 0.598377 13.2523 0.561434 13.1915 0.536228C13.1308 0.511021 13.0657 0.498047 12.9999 0.498047C12.9341 0.498047 12.869 0.511021 12.8083 0.536228C12.7475 0.561434 12.6923 0.598377 12.6459 0.64494L6.9999 6.29194L1.3539 0.644939C1.30741 0.598451 1.25222 0.561575 1.19148 0.536416C1.13074 0.511257 1.06564 0.498308 0.9999 0.498308C0.934156 0.498308 0.869056 0.511257 0.808316 0.536416C0.747577 0.561575 0.692388 0.598451 0.6459 0.644939C0.599412 0.691427 0.562535 0.746616 0.537376 0.807356C0.512217 0.868095 0.499268 0.933195 0.499268 0.998939C0.499268 1.06468 0.512217 1.12978 0.537376 1.19052C0.562535 1.25126 0.599412 1.30645 0.6459 1.35294L6.6459 7.35294C6.69235 7.3995 6.74752 7.43645 6.80827 7.46165C6.86901 7.48686 6.93413 7.49983 6.9999 7.49983C7.06567 7.49983 7.13079 7.48686 7.19153 7.46165C7.25228 7.43645 7.30745 7.3995 7.3539 7.35294L13.3539 1.35294C13.4005 1.30649 13.4374 1.25132 13.4626 1.19057C13.4878 1.12983 13.5008 1.06471 13.5008 0.998941C13.5008 0.933173 13.4878 0.868052 13.4626 0.807307C13.4374 0.746562 13.4005 0.691386 13.3539 0.64494Z" fill="black"/>
</svg>
