<svg width="24" height="25" viewBox="0 0 24 25" fill="none" xmlns="http://www.w3.org/2000/svg">
<path d="M17.8964 13.928C17.6402 13.6952 17.3035 13.571 16.9574 13.5817C16.6114 13.5924 16.283 13.7371 16.0417 13.9854L12.851 17.2667C12.083 17.12 10.539 16.6387 8.94971 15.0534C7.36038 13.4627 6.87904 11.9147 6.73638 11.152L10.015 7.96002C10.2636 7.71886 10.4086 7.39045 10.4193 7.0443C10.43 6.69814 10.3056 6.36141 10.0724 6.10536L5.14571 0.688021C4.91243 0.431164 4.58821 0.27536 4.24191 0.253701C3.89561 0.232042 3.55451 0.346232 3.29104 0.572021L0.399043 3.05335C0.167915 3.28388 0.0297896 3.59146 0.0110426 3.91736C-0.00895738 4.25069 -0.390291 12.1467 5.73238 18.272C11.0737 23.6134 17.7644 24.004 19.607 24.004C19.8764 24.004 20.0417 23.996 20.0857 23.9934C20.4117 23.9751 20.7195 23.8369 20.9497 23.6054L23.4297 20.7107C23.6557 20.4474 23.7701 20.1064 23.7487 19.7601C23.7273 19.4138 23.5717 19.0895 23.315 18.856L17.8964 13.928Z" fill="#B694C0"/>
</svg>
