<svg  viewBox="0 0 32 32" fill="none" xmlns="http://www.w3.org/2000/svg">
<path d="M22.3906 7.724L16.3906 13.724L18.276 15.6093L24.276 9.60933L28 13.3333V4H18.6666L22.3906 7.724Z" fill="#B694C0"/>
<path d="M21.8964 17.928C21.6402 17.6952 21.3035 17.571 20.9574 17.5817C20.6114 17.5924 20.283 17.7371 20.0417 17.9854L16.851 21.2667C16.083 21.12 14.539 20.6387 12.9497 19.0534C11.3604 17.4627 10.879 15.9147 10.7364 15.152L14.015 11.96C14.2636 11.7189 14.4086 11.3905 14.4193 11.0443C14.43 10.6981 14.3056 10.3614 14.0724 10.1054L9.14571 4.68802C8.91243 4.43116 8.58821 4.27536 8.24191 4.2537C7.89561 4.23204 7.55451 4.34623 7.29104 4.57202L4.39904 7.05335C4.16791 7.28388 4.02979 7.59146 4.01104 7.91736C3.99104 8.25069 3.60971 16.1467 9.73238 22.272C15.0737 27.6134 21.7644 28.004 23.607 28.004C23.8764 28.004 24.0417 27.996 24.0857 27.9934C24.4117 27.9751 24.7195 27.8369 24.9497 27.6054L27.4297 24.7107C27.6557 24.4474 27.7701 24.1064 27.7487 23.7601C27.7273 23.4138 27.5717 23.0895 27.315 22.856L21.8964 17.928Z" fill="#B694C0"/>
</svg>
