<svg width="20" height="15" viewBox="0 0 20 15" fill="none" xmlns="http://www.w3.org/2000/svg">
<path d="M0.625 1.625C0.625 1.32663 0.743526 1.04048 0.954505 0.829505C1.16548 0.618526 1.45163 0.5 1.75 0.5H18.25C18.5484 0.5 18.8345 0.618526 19.0455 0.829505C19.2565 1.04048 19.375 1.32663 19.375 1.625C19.375 1.92337 19.2565 2.20952 19.0455 2.4205C18.8345 2.63147 18.5484 2.75 18.25 2.75H1.75C1.45163 2.75 1.16548 2.63147 0.954505 2.4205C0.743526 2.20952 0.625 1.92337 0.625 1.625ZM3.625 7.625C3.625 7.32663 3.74353 7.04048 3.9545 6.8295C4.16548 6.61853 4.45163 6.5 4.75 6.5H15.25C15.5484 6.5 15.8345 6.61853 16.0455 6.8295C16.2565 7.04048 16.375 7.32663 16.375 7.625C16.375 7.92337 16.2565 8.20952 16.0455 8.42049C15.8345 8.63147 15.5484 8.75 15.25 8.75H4.75C4.45163 8.75 4.16548 8.63147 3.9545 8.42049C3.74353 8.20952 3.625 7.92337 3.625 7.625ZM6.625 13.625C6.625 13.3266 6.74353 13.0405 6.9545 12.8295C7.16548 12.6185 7.45163 12.5 7.75 12.5H12.25C12.5484 12.5 12.8345 12.6185 13.0455 12.8295C13.2565 13.0405 13.375 13.3266 13.375 13.625C13.375 13.9234 13.2565 14.2095 13.0455 14.4205C12.8345 14.6315 12.5484 14.75 12.25 14.75H7.75C7.45163 14.75 7.16548 14.6315 6.9545 14.4205C6.74353 14.2095 6.625 13.9234 6.625 13.625Z" fill="#E5004F"/>
</svg>
