<svg width="40" height="40" viewBox="0 0 40 40" fill="none" xmlns="http://www.w3.org/2000/svg">
<path d="M20.4722 10.2374H15.3535V15.3561H10.2348V20.4748H15.3535V25.5935H20.4722V20.4748H25.5909V15.3561H20.4722V10.2374ZM40 35.5442L32.6061 28.1502C34.6331 25.2479 35.8308 21.7237 35.8308 17.9154C35.8308 8.021 27.8073 0 17.9154 0C8.02357 0 0 8.021 0 17.9154C0 27.8098 8.02097 35.8308 17.9154 35.8308C21.7237 35.8308 25.2505 34.6331 28.1528 32.6061L35.5467 40L40 35.5442ZM17.9129 30.7147C10.8465 30.7147 5.11613 24.9868 5.11613 17.918C5.11613 10.8491 10.8465 5.12123 17.9129 5.12123C24.9818 5.12123 30.7096 10.8491 30.7096 17.918C30.7121 24.9868 24.9843 30.7147 17.9129 30.7147Z" fill="black"/>
</svg>
