<svg width="1184" height="209" viewBox="0 0 1184 209" fill="none" xmlns="http://www.w3.org/2000/svg">
<path d="M72.965 205V206H73.965V205H72.965ZM-88.54 205H-89.54V206H-88.54V205ZM-88.54 1.29999V0.299988H-89.54V1.29999H-88.54ZM72.965 1.29999H73.965V0.299988H72.965V1.29999ZM72.965 42.04V43.04H73.965V42.04H72.965ZM-36.16 42.04V41.04H-37.16V42.04H-36.16ZM-36.16 81.325H-37.16V82.325H-36.16V81.325ZM49.685 81.325H50.685V80.325H49.685V81.325ZM49.685 122.065V123.065H50.685V122.065H49.685ZM-36.16 122.065V121.065H-37.16V122.065H-36.16ZM-36.16 164.26H-37.16V165.26H-36.16V164.26ZM72.965 164.26H73.965V163.26H72.965V164.26ZM72.965 204H-88.54V206H72.965V204ZM-87.54 205V1.29999H-89.54V205H-87.54ZM-88.54 2.29999H72.965V0.299988H-88.54V2.29999ZM71.965 1.29999V42.04H73.965V1.29999H71.965ZM72.965 41.04H-36.16V43.04H72.965V41.04ZM-37.16 42.04V81.325H-35.16V42.04H-37.16ZM-36.16 82.325H49.685V80.325H-36.16V82.325ZM48.685 81.325V122.065H50.685V81.325H48.685ZM49.685 121.065H-36.16V123.065H49.685V121.065ZM-37.16 122.065V164.26H-35.16V122.065H-37.16ZM-36.16 165.26H72.965V163.26H-36.16V165.26ZM71.965 164.26V205H73.965V164.26H71.965ZM273.687 205V206H274.687V205H273.687ZM218.397 205L217.529 205.496L217.816 206H218.397V205ZM148.557 82.78L149.425 82.2839L147.557 79.0144V82.78H148.557ZM148.557 205V206H149.557V205H148.557ZM96.1768 205H95.1768V206H96.1768V205ZM96.1768 1.29999V0.299988H95.1768V1.29999H96.1768ZM151.467 1.29999L152.335 0.803848L152.047 0.299988H151.467V1.29999ZM221.307 123.52L220.439 124.016L222.307 127.286V123.52H221.307ZM221.307 1.29999V0.299988H220.307V1.29999H221.307ZM273.687 1.29999H274.687V0.299988H273.687V1.29999ZM273.687 204H218.397V206H273.687V204ZM219.265 204.504L149.425 82.2839L147.689 83.2761L217.529 205.496L219.265 204.504ZM147.557 82.78V205H149.557V82.78H147.557ZM148.557 204H96.1768V206H148.557V204ZM97.1768 205V1.29999H95.1768V205H97.1768ZM96.1768 2.29999H151.467V0.299988H96.1768V2.29999ZM150.599 1.79613L220.439 124.016L222.175 123.024L152.335 0.803848L150.599 1.79613ZM222.307 123.52V1.29999H220.307V123.52H222.307ZM221.307 2.29999H273.687V0.299988H221.307V2.29999ZM272.687 1.29999V205H274.687V1.29999H272.687ZM470.248 205V206H471.248V205H470.248ZM308.743 205H307.743V206H308.743V205ZM308.743 1.29999V0.299988H307.743V1.29999H308.743ZM470.248 1.29999H471.248V0.299988H470.248V1.29999ZM470.248 42.04V43.04H471.248V42.04H470.248ZM361.123 42.04V41.04H360.123V42.04H361.123ZM361.123 81.325H360.123V82.325H361.123V81.325ZM446.968 81.325H447.968V80.325H446.968V81.325ZM446.968 122.065V123.065H447.968V122.065H446.968ZM361.123 122.065V121.065H360.123V122.065H361.123ZM361.123 164.26H360.123V165.26H361.123V164.26ZM470.248 164.26H471.248V163.26H470.248V164.26ZM470.248 204H308.743V206H470.248V204ZM309.743 205V1.29999H307.743V205H309.743ZM308.743 2.29999H470.248V0.299988H308.743V2.29999ZM469.248 1.29999V42.04H471.248V1.29999H469.248ZM470.248 41.04H361.123V43.04H470.248V41.04ZM360.123 42.04V81.325H362.123V42.04H360.123ZM361.123 82.325H446.968V80.325H361.123V82.325ZM445.968 81.325V122.065H447.968V81.325H445.968ZM446.968 121.065H361.123V123.065H446.968V121.065ZM360.123 122.065V164.26H362.123V122.065H360.123ZM361.123 165.26H470.248V163.26H361.123V165.26ZM469.248 164.26V205H471.248V164.26H469.248ZM493.46 1.29999V0.299988H492.46V1.29999H493.46ZM659.912 15.268L659.198 15.9676L659.205 15.9751L659.212 15.9825L659.912 15.268ZM665.732 123.229L664.878 122.709L664.874 122.716L664.87 122.723L665.732 123.229ZM640.415 140.98L640.172 140.01L638.895 140.329L639.546 141.474L640.415 140.98ZM676.79 205V206H678.508L677.659 204.506L676.79 205ZM620.045 205L619.168 205.48L619.453 206H620.045V205ZM586.58 143.89L587.457 143.41L587.172 142.89H586.58V143.89ZM545.84 143.89V142.89H544.84V143.89H545.84ZM545.84 205V206H546.84V205H545.84ZM493.46 205H492.46V206H493.46V205ZM545.84 42.04V41.04H544.84V42.04H545.84ZM545.84 103.15H544.84V104.15H545.84V103.15ZM493.46 2.29999H615.68V0.299988H493.46V2.29999ZM615.68 2.29999C635.929 2.29999 650.35 6.93233 659.198 15.9676L660.627 14.5684C651.238 4.97964 636.171 0.299988 615.68 0.299988V2.29999ZM659.212 15.9825C668.248 24.8296 672.88 39.2513 672.88 59.5H674.88C674.88 39.0087 670.2 23.9424 660.612 14.5535L659.212 15.9825ZM672.88 59.5V85.69H674.88V59.5H672.88ZM672.88 85.69C672.88 101.7 670.176 114.005 664.878 122.709L666.586 123.749C672.152 114.605 674.88 101.884 674.88 85.69H672.88ZM664.87 122.723C659.789 131.378 651.597 137.154 640.172 140.01L640.658 141.95C652.513 138.986 661.199 132.928 666.594 123.735L664.87 122.723ZM639.546 141.474L675.921 205.494L677.659 204.506L641.284 140.486L639.546 141.474ZM676.79 204H620.045V206H676.79V204ZM620.922 204.52L587.457 143.41L585.703 144.37L619.168 205.48L620.922 204.52ZM586.58 142.89H545.84V144.89H586.58V142.89ZM544.84 143.89V205H546.84V143.89H544.84ZM545.84 204H493.46V206H545.84V204ZM494.46 205V1.29999H492.46V205H494.46ZM622.5 59.5C622.5 53.5259 621.006 48.8616 617.842 45.6979C614.678 42.5342 610.014 41.04 604.04 41.04V43.04C609.706 43.04 613.772 44.4558 616.428 47.1121C619.084 49.7684 620.5 53.8341 620.5 59.5H622.5ZM604.04 41.04H545.84V43.04H604.04V41.04ZM544.84 42.04V103.15H546.84V42.04H544.84ZM545.84 104.15H604.04V102.15H545.84V104.15ZM604.04 104.15C610.014 104.15 614.678 102.656 617.842 99.4921C621.006 96.3284 622.5 91.6641 622.5 85.69H620.5C620.5 91.3559 619.084 95.4216 616.428 98.0779C613.772 100.734 609.706 102.15 604.04 102.15V104.15ZM622.5 85.69V59.5H620.5V85.69H622.5ZM877.5 200.635L877.607 201.629L878.5 201.534V200.635H877.5ZM710.466 194.524L711.174 193.817L710.466 194.524ZM710.757 15.268L711.465 15.9751L710.757 15.268ZM860.04 1.29999H861.04V0.299988H860.04V1.29999ZM860.04 42.04V43.04H861.04V42.04H860.04ZM753.243 163.387L752.511 164.067L752.536 164.095L752.563 164.12L753.243 163.387ZM825.12 165.715L825.173 166.714L826.12 166.664V165.715H825.12ZM825.12 123.52H826.12V122.52H825.12V123.52ZM787.29 123.52H786.29V124.52H787.29V123.52ZM787.29 88.6V87.6H786.29V88.6H787.29ZM877.5 88.6H878.5V87.6H877.5V88.6ZM877.394 199.641C832.027 204.488 790.353 206.91 752.37 206.91V208.91C790.436 208.91 832.182 206.482 877.607 201.629L877.394 199.641ZM752.37 206.91C733.491 206.91 719.833 202.477 711.174 193.817L709.759 195.231C718.947 204.419 733.226 208.91 752.37 208.91V206.91ZM711.174 193.817C702.514 185.157 698.08 171.499 698.08 152.62H696.08C696.08 171.765 700.571 186.043 709.759 195.231L711.174 193.817ZM698.08 152.62V59.5H696.08V152.62H698.08ZM698.08 59.5C698.08 39.2465 702.618 24.8216 711.465 15.9751L710.05 14.5609C700.661 23.9504 696.08 39.0135 696.08 59.5H698.08ZM711.465 15.9751C720.508 6.93134 735.034 2.29999 755.28 2.29999V0.299988C734.787 0.299988 719.631 4.98064 710.05 14.5609L711.465 15.9751ZM755.28 2.29999H860.04V0.299988H755.28V2.29999ZM859.04 1.29999V42.04H861.04V1.29999H859.04ZM860.04 41.04H766.92V43.04H860.04V41.04ZM766.92 41.04C760.946 41.04 756.282 42.5342 753.118 45.6979C749.955 48.8616 748.46 53.5259 748.46 59.5H750.46C750.46 53.8341 751.876 49.7684 754.533 47.1121C757.189 44.4558 761.255 43.04 766.92 43.04V41.04ZM748.46 59.5V152.62H750.46V59.5H748.46ZM748.46 152.62C748.46 157.28 749.783 161.13 752.511 164.067L753.976 162.707C751.66 160.212 750.46 156.884 750.46 152.62H748.46ZM752.563 164.12C755.5 166.847 759.35 168.17 764.01 168.17V166.17C759.746 166.17 756.419 164.971 753.924 162.654L752.563 164.12ZM764.01 168.17C786.334 168.17 806.722 167.685 825.173 166.714L825.068 164.716C806.659 165.685 786.306 166.17 764.01 166.17V168.17ZM826.12 165.715V123.52H824.12V165.715H826.12ZM825.12 122.52H787.29V124.52H825.12V122.52ZM788.29 123.52V88.6H786.29V123.52H788.29ZM787.29 89.6H877.5V87.6H787.29V89.6ZM876.5 88.6V200.635H878.5V88.6H876.5ZM871.726 1.29999V0.299988H870.087L870.837 1.75753L871.726 1.29999ZM927.016 1.29999L927.916 0.863388L927.642 0.299988H927.016V1.29999ZM975.031 100.24L974.131 100.677L975.031 102.53L975.931 100.677L975.031 100.24ZM1023.05 1.29999V0.299988H1022.42L1022.15 0.863388L1023.05 1.29999ZM1078.34 1.29999L1079.23 1.75753L1079.98 0.299988H1078.34V1.29999ZM1001.22 151.165L1000.33 150.707L1000.22 150.923V151.165H1001.22ZM1001.22 205V206H1002.22V205H1001.22ZM948.841 205H947.841V206H948.841V205ZM948.841 151.165H949.841V150.923L949.73 150.707L948.841 151.165ZM871.726 2.29999H927.016V0.299988H871.726V2.29999ZM926.116 1.73659L974.131 100.677L975.931 99.8034L927.916 0.863388L926.116 1.73659ZM975.931 100.677L1023.95 1.73659L1022.15 0.863388L974.131 99.8034L975.931 100.677ZM1023.05 2.29999H1078.34V0.299988H1023.05V2.29999ZM1077.45 0.842445L1000.33 150.707L1002.11 151.623L1079.23 1.75753L1077.45 0.842445ZM1000.22 151.165V205H1002.22V151.165H1000.22ZM1001.22 204H948.841V206H1001.22V204ZM949.841 205V151.165H947.841V205H949.841ZM949.73 150.707L872.615 0.842445L870.837 1.75753L947.952 151.623L949.73 150.707ZM1264.55 91.51H1265.55V87.6776L1263.68 91.0214L1264.55 91.51ZM1223.81 164.26V165.26H1224.4L1224.69 164.749L1223.81 164.26ZM1183.07 164.26L1182.2 164.749L1182.49 165.26H1183.07V164.26ZM1142.33 91.51L1143.21 91.0214L1141.33 87.6776V91.51H1142.33ZM1142.33 205V206H1143.33V205H1142.33ZM1089.95 205H1088.95V206H1089.95V205ZM1089.95 1.29999V0.299988H1088.95V1.29999H1089.95ZM1145.24 1.29999L1146.12 0.824471L1145.84 0.299988H1145.24V1.29999ZM1203.44 108.97L1202.56 109.446L1203.44 111.073L1204.32 109.446L1203.44 108.97ZM1261.64 1.29999V0.299988H1261.05L1260.76 0.824471L1261.64 1.29999ZM1316.93 1.29999H1317.93V0.299988H1316.93V1.29999ZM1316.93 205V206H1317.93V205H1316.93ZM1264.55 205H1263.55V206H1264.55V205ZM1263.68 91.0214L1222.94 163.771L1224.69 164.749L1265.43 91.9986L1263.68 91.0214ZM1223.81 163.26H1183.07V165.26H1223.81V163.26ZM1183.95 163.771L1143.21 91.0214L1141.46 91.9986L1182.2 164.749L1183.95 163.771ZM1141.33 91.51V205H1143.33V91.51H1141.33ZM1142.33 204H1089.95V206H1142.33V204ZM1090.95 205V1.29999H1088.95V205H1090.95ZM1089.95 2.29999H1145.24V0.299988H1089.95V2.29999ZM1144.36 1.77551L1202.56 109.446L1204.32 108.494L1146.12 0.824471L1144.36 1.77551ZM1204.32 109.446L1262.52 1.77551L1260.76 0.824471L1202.56 108.494L1204.32 109.446ZM1261.64 2.29999H1316.93V0.299988H1261.64V2.29999ZM1315.93 1.29999V205H1317.93V1.29999H1315.93ZM1316.93 204H1264.55V206H1316.93V204ZM1265.55 205V91.51H1263.55V205H1265.55Z" fill="#B694C0" fill-opacity="0.3"/>
</svg>
